<?xml version="1.0" encoding="UTF-8" standalone="no"?>
<!-- Created with Inkscape (http://www.inkscape.org/) -->

<svg
   width="210mm"
   height="297mm"
   viewBox="0 0 210 297"
   version="1.1"
   id="svg473"
   inkscape:version="1.2.2 (732a01da63, 2022-12-09)"
   sodipodi:docname="MX104-HS_BLabel.svg"
   xmlns:inkscape="http://www.inkscape.org/namespaces/inkscape"
   xmlns:sodipodi="http://sodipodi.sourceforge.net/DTD/sodipodi-0.dtd"
   xmlns="http://www.w3.org/2000/svg"
   xmlns:svg="http://www.w3.org/2000/svg">
  <sodipodi:namedview
     id="namedview475"
     pagecolor="#ffffff"
     bordercolor="#000000"
     borderopacity="0.25"
     inkscape:showpageshadow="2"
     inkscape:pageopacity="0.0"
     inkscape:pagecheckerboard="0"
     inkscape:deskcolor="#d1d1d1"
     inkscape:document-units="mm"
     showgrid="false"
     inkscape:zoom="3.6596241"
     inkscape:cx="432.01158"
     inkscape:cy="490.07766"
     inkscape:window-width="1916"
     inkscape:window-height="2041"
     inkscape:window-x="4782"
     inkscape:window-y="0"
     inkscape:window-maximized="0"
     inkscape:current-layer="layer1" />
  <defs
     id="defs470">
    <rect
       x="448.27009"
       y="473.20435"
       width="51.781276"
       height="20.023014"
       id="rect2014" />
  </defs>
  <g
     inkscape:label="Layer 1"
     inkscape:groupmode="layer"
     id="layer1">
    <path
       id="rect3526"
       style="fill-opacity:0;stroke:#000000;stroke-width:0.521528;stroke-linecap:round;stroke-linejoin:round"
       d="m 119.8747,124.38797 h 41.35469 v 11.56106 H 119.8747 Z" />
    <text
       xml:space="preserve"
       transform="scale(0.26458333)"
       id="text2012"
       style="font-size:13.3333px;font-family:'Cambria Math';-inkscape-font-specification:'Cambria Math, Normal';white-space:pre;shape-inside:url(#rect2014);display:inline;fill:#000000;stroke:#000000;stroke-width:0.0377953;stroke-linecap:round;stroke-linejoin:round" />
    <g
       aria-label="SteveT10's"
       id="text2020"
       style="font-size:3.52777px;font-family:'Courier New';-inkscape-font-specification:'Courier New, Normal';stroke:#000000;stroke-width:0.01;stroke-linecap:round;stroke-linejoin:round"
       transform="matrix(1.9062179,0,0,1.9062179,-107.86987,-111.82781)">
      <path
         d="m 121.22047,124.83039 v -0.0482 q 0,-0.0517 0.0189,-0.0741 0.0207,-0.0224 0.0534,-0.0224 0.0327,0 0.0517,0.0224 0.0207,0.0224 0.0207,0.0741 v 0.36862 q 0,0.0517 -0.0207,0.0741 -0.0189,0.0224 -0.0517,0.0224 -0.031,0 -0.0517,-0.0207 -0.019,-0.0207 -0.0207,-0.0672 -0.009,-0.1447 -0.14986,-0.26011 -0.13953,-0.11541 -0.3669,-0.11541 -0.23944,0 -0.38069,0.12402 -0.14125,0.12231 -0.14125,0.28939 0,0.0861 0.0396,0.15675 0.0396,0.0706 0.10508,0.11541 0.0654,0.0431 0.14814,0.0706 0.0827,0.0258 0.25838,0.0551 0.29455,0.0482 0.40652,0.0982 0.14986,0.0672 0.22565,0.18604 0.0775,0.11885 0.0775,0.28077 0,0.24805 -0.1981,0.42375 -0.19809,0.17398 -0.53398,0.17398 -0.37724,0 -0.6029,-0.23599 v 0.0827 q 0,0.0517 -0.0207,0.0741 -0.0189,0.0224 -0.0517,0.0224 -0.031,0 -0.0517,-0.0224 -0.0207,-0.0224 -0.0207,-0.0741 v -0.39963 q 0,-0.0534 0.019,-0.0758 0.0207,-0.0224 0.0534,-0.0224 0.031,0 0.05,0.0207 0.0207,0.0207 0.0224,0.0672 0.009,0.15848 0.16881,0.28939 0.16192,0.12919 0.43409,0.12919 0.27216,0 0.42891,-0.13608 0.15847,-0.13608 0.15847,-0.32211 0,-0.11369 -0.0603,-0.20154 -0.0603,-0.0896 -0.17914,-0.14125 -0.0827,-0.0362 -0.34451,-0.081 -0.36001,-0.0603 -0.51849,-0.18431 -0.15847,-0.12402 -0.15847,-0.35312 0,-0.22738 0.18087,-0.39102 0.18259,-0.16364 0.48059,-0.16364 0.30317,0 0.52193,0.1912 z"
         id="path3831" />
      <path
         d="m 122.52271,125.20935 h 0.78548 q 0.0517,0 0.0741,0.0207 0.0224,0.0207 0.0224,0.0534 0,0.031 -0.0224,0.0517 -0.0224,0.0207 -0.0741,0.0207 h -0.78548 v 0.9629 q 0,0.12574 0.0999,0.21015 0.10163,0.0844 0.29628,0.0844 0.14641,0 0.31694,-0.0431 0.17054,-0.0448 0.26528,-0.0999 0.0345,-0.0224 0.0568,-0.0224 0.0276,0 0.0482,0.0224 0.0207,0.0207 0.0207,0.05 0,0.0258 -0.0224,0.0482 -0.0551,0.0568 -0.26872,0.12402 -0.21187,0.0655 -0.40652,0.0655 -0.25321,0 -0.40307,-0.11886 -0.14986,-0.11885 -0.14986,-0.32039 v -0.9629 h -0.267 q -0.0517,0 -0.0741,-0.0207 -0.0224,-0.0207 -0.0224,-0.0534 0,-0.031 0.0224,-0.0517 0.0224,-0.0207 0.0741,-0.0207 h 0.267 v -0.42719 q 0,-0.0517 0.0207,-0.0741 0.0207,-0.0224 0.0517,-0.0224 0.0327,0 0.0534,0.0224 0.0207,0.0224 0.0207,0.0741 z"
         id="path3833" />
      <path
         d="m 125.71975,125.98966 h -1.47449 q 0.0379,0.28078 0.23426,0.45303 0.19809,0.17053 0.4892,0.17053 0.16192,0 0.33935,-0.0534 0.17742,-0.0534 0.28938,-0.14124 0.0327,-0.0258 0.0569,-0.0258 0.0276,0 0.0482,0.0224 0.0207,0.0207 0.0207,0.0499 0,0.0293 -0.0276,0.0568 -0.0827,0.0861 -0.29456,0.16192 -0.21015,0.0741 -0.43236,0.0741 -0.37207,0 -0.62183,-0.24288 -0.24805,-0.2446 -0.24805,-0.59083 0,-0.31523 0.23254,-0.54088 0.23427,-0.22566 0.57878,-0.22566 0.35484,0 0.58394,0.23255 0.2291,0.23082 0.22565,0.59944 z m -0.14641,-0.14641 q -0.0431,-0.23944 -0.22738,-0.3893 -0.18259,-0.14986 -0.4358,-0.14986 -0.25322,0 -0.43581,0.14814 -0.18259,0.14814 -0.22737,0.39102 z"
         id="path3835" />
      <path
         d="m 127.18047,126.70107 h -0.2446 l -0.59428,-1.3453 h -0.14814 q -0.0517,0 -0.0741,-0.0207 -0.0224,-0.0207 -0.0224,-0.0534 0,-0.031 0.0224,-0.0517 0.0224,-0.0207 0.0741,-0.0207 h 0.5426 q 0.0517,0 0.0741,0.0207 0.0224,0.0207 0.0224,0.0534 0,0.031 -0.0224,0.0517 -0.0224,0.0207 -0.0741,0.0207 h -0.23943 l 0.53054,1.20061 h 0.0637 l 0.52021,-1.20061 h -0.24116 q -0.0517,0 -0.0741,-0.0207 -0.0224,-0.0207 -0.0224,-0.0534 0,-0.031 0.0224,-0.0517 0.0224,-0.0207 0.0741,-0.0207 h 0.54432 q 0.0534,0 0.0741,0.0207 0.0224,0.0207 0.0224,0.0534 0,0.031 -0.0224,0.0517 -0.0207,0.0207 -0.0741,0.0207 h -0.14641 z"
         id="path3837" />
      <path
         d="m 129.95377,125.98966 h -1.4745 q 0.0379,0.28078 0.23426,0.45303 0.1981,0.17053 0.48921,0.17053 0.16192,0 0.33934,-0.0534 0.17742,-0.0534 0.28939,-0.14124 0.0327,-0.0258 0.0568,-0.0258 0.0276,0 0.0482,0.0224 0.0207,0.0207 0.0207,0.0499 0,0.0293 -0.0276,0.0568 -0.0827,0.0861 -0.29455,0.16192 -0.21015,0.0741 -0.43236,0.0741 -0.37207,0 -0.62184,-0.24288 -0.24805,-0.2446 -0.24805,-0.59083 0,-0.31523 0.23255,-0.54088 0.23426,-0.22566 0.57877,-0.22566 0.35484,0 0.58394,0.23255 0.2291,0.23082 0.22566,0.59944 z m -0.14642,-0.14641 q -0.0431,-0.23944 -0.22738,-0.3893 -0.18259,-0.14986 -0.4358,-0.14986 -0.25321,0 -0.4358,0.14814 -0.18259,0.14814 -0.22738,0.39102 z"
         id="path3839" />
      <path
         d="m 131.35936,124.83039 v 1.72599 h 0.37552 q 0.0517,0 0.0741,0.0207 0.0224,0.019 0.0224,0.0517 0,0.031 -0.0224,0.0517 -0.0224,0.0207 -0.0741,0.0207 h -0.89745 q -0.0517,0 -0.0741,-0.0207 -0.0224,-0.0207 -0.0224,-0.0517 0,-0.0327 0.0224,-0.0517 0.0224,-0.0207 0.0741,-0.0207 h 0.37552 v -1.72599 h -0.59256 v 0.50126 q 0,0.0534 -0.0207,0.0758 -0.0189,0.0224 -0.0517,0.0224 -0.031,0 -0.0517,-0.0224 -0.0207,-0.0224 -0.0207,-0.0758 v -0.64595 h 1.62091 v 0.64595 q 0,0.0534 -0.0207,0.0758 -0.0189,0.0224 -0.0517,0.0224 -0.0327,0 -0.0534,-0.0224 -0.0189,-0.0224 -0.0189,-0.0758 v -0.50126 z"
         id="path3841" />
      <path
         d="m 133.47637,124.51 v 2.04638 h 0.49609 q 0.0517,0 0.0741,0.0207 0.0224,0.019 0.0224,0.0517 0,0.031 -0.0224,0.0517 -0.0224,0.0207 -0.0741,0.0207 h -1.13688 q -0.0517,0 -0.0741,-0.0207 -0.0224,-0.0207 -0.0224,-0.0517 0,-0.0327 0.0224,-0.0517 0.0224,-0.0207 0.0741,-0.0207 h 0.4961 v -1.84657 l -0.47198,0.14814 q -0.0344,0.0103 -0.05,0.0103 -0.0258,0 -0.0482,-0.0207 -0.0207,-0.0224 -0.0207,-0.0517 0,-0.0258 0.0172,-0.0482 0.0138,-0.0138 0.0568,-0.0293 z"
         id="path3843" />
      <path
         d="m 136.18593,125.44189 v 0.35829 q 0,0.46681 -0.22221,0.73897 -0.17397,0.2136 -0.43925,0.2136 -0.12746,0 -0.24115,-0.0517 -0.11197,-0.0499 -0.1912,-0.14125 -0.05,-0.0568 -0.11025,-0.18259 -0.0586,-0.12574 -0.0844,-0.23082 -0.0396,-0.14814 -0.0396,-0.34623 v -0.35829 q 0,-0.46853 0.22221,-0.74069 0.17397,-0.2136 0.43925,-0.2136 0.12919,0 0.24115,0.0517 0.11197,0.0499 0.1912,0.14125 0.0517,0.0586 0.11025,0.18431 0.0586,0.12575 0.0861,0.2291 0.0379,0.14814 0.0379,0.34795 z m -0.14469,0.019 q 0,-0.20498 -0.0586,-0.38068 -0.0568,-0.17742 -0.12919,-0.2825 -0.0431,-0.0603 -0.11197,-0.10335 -0.0982,-0.0603 -0.22048,-0.0603 -0.24288,0 -0.38068,0.24805 -0.13781,0.24804 -0.13781,0.57877 v 0.31867 q 0,0.20498 0.0568,0.38241 0.0586,0.17742 0.13263,0.28249 0.0413,0.0586 0.11025,0.10163 0.0982,0.062 0.2222,0.062 0.24116,0 0.37896,-0.24805 0.13781,-0.24977 0.13781,-0.5805 z"
         id="path3845" />
      <path
         d="m 137.40894,124.53928 h 0.45819 l -0.12057,0.90434 q -0.0103,0.0723 -0.0396,0.10163 -0.0276,0.0276 -0.0689,0.0276 -0.0431,0 -0.0706,-0.0276 -0.0276,-0.0293 -0.0379,-0.10163 z"
         id="path3847" />
      <path
         d="m 140.23391,125.30409 q 0,-0.0499 0.0207,-0.0724 0.0207,-0.0224 0.0517,-0.0224 0.0327,0 0.0534,0.0224 0.0207,0.0224 0.0207,0.0758 v 0.24805 q 0,0.0517 -0.0207,0.0741 -0.0207,0.0224 -0.0534,0.0224 -0.0293,0 -0.05,-0.0189 -0.019,-0.019 -0.0224,-0.062 -0.0103,-0.10335 -0.1068,-0.17053 -0.14125,-0.0965 -0.37379,-0.0965 -0.24288,0 -0.37724,0.0982 -0.10163,0.0741 -0.10163,0.16537 0,0.10335 0.12058,0.17225 0.0827,0.0482 0.3135,0.0741 0.30145,0.0327 0.41858,0.0741 0.16709,0.0603 0.24805,0.16709 0.0827,0.1068 0.0827,0.23082 0,0.18431 -0.17742,0.32901 -0.17742,0.14297 -0.52021,0.14297 -0.34279,0 -0.56155,-0.17398 0,0.0586 -0.007,0.0758 -0.007,0.0172 -0.0258,0.0293 -0.0172,0.0121 -0.0396,0.0121 -0.031,0 -0.0517,-0.0224 -0.0207,-0.0224 -0.0207,-0.0741 v -0.298 q 0,-0.0517 0.0189,-0.0741 0.0207,-0.0224 0.0534,-0.0224 0.031,0 0.0517,0.0224 0.0224,0.0207 0.0224,0.0568 0,0.0792 0.0396,0.13264 0.0603,0.0827 0.1912,0.1378 0.13264,0.0534 0.32384,0.0534 0.2825,0 0.4203,-0.10507 0.13781,-0.10508 0.13781,-0.22221 0,-0.13436 -0.13953,-0.21532 -0.14125,-0.081 -0.41169,-0.10852 -0.26872,-0.0276 -0.38585,-0.0724 -0.11713,-0.0448 -0.18259,-0.13435 -0.0654,-0.0896 -0.0654,-0.19293 0,-0.18603 0.18258,-0.29455 0.18259,-0.11025 0.43581,-0.11025 0.29972,0 0.48748,0.14642 z"
         id="path3849" />
    </g>
    <g
       aria-label="MX104-HS"
       id="text429-7-6"
       style="font-weight:300;font-size:1.35334px;font-family:Calibri;-inkscape-font-specification:'Calibri, Light';white-space:pre;fill:none;fill-opacity:0;stroke:#000000;stroke-width:0.108267;stroke-linecap:round;stroke-linejoin:round"
       transform="matrix(2.6680854,0,0,2.6680854,-198.81942,-207.1826)">
      <path
         d="m 120.44249,127.57014 h -0.0987 l -0.33202,-0.75552 h -0.0165 v 1.02998 h 0.15933 q 0.0308,0 0.0442,0.0123 0.0134,0.0113 0.0134,0.0308 0,0.0185 -0.0134,0.0308 -0.0134,0.0123 -0.0442,0.0123 h -0.31866 q -0.0308,0 -0.0442,-0.0123 -0.0134,-0.0123 -0.0134,-0.0308 0,-0.0195 0.0134,-0.0308 0.0134,-0.0123 0.0442,-0.0123 h 0.073 v -1.02998 h -0.0545 q -0.0308,0 -0.0442,-0.0113 -0.0134,-0.0123 -0.0134,-0.0319 0,-0.0195 0.0134,-0.0308 0.0134,-0.0123 0.0442,-0.0123 h 0.21176 l 0.32688,0.74422 0.32174,-0.74422 h 0.21175 q 0.0319,0 0.0452,0.0123 0.0134,0.0113 0.0134,0.0308 0,0.0195 -0.0134,0.0319 -0.0134,0.0113 -0.0452,0.0113 h -0.0535 v 1.02998 h 0.072 q 0.0319,0 0.0452,0.0123 0.0134,0.0113 0.0134,0.0308 0,0.0185 -0.0134,0.0308 -0.0134,0.0123 -0.0452,0.0123 h -0.31763 q -0.0308,0 -0.0452,-0.0123 -0.0134,-0.0123 -0.0134,-0.0308 0,-0.0195 0.0134,-0.0308 0.0134,-0.0123 0.0452,-0.0123 h 0.15933 v -1.02998 h -0.0185 z"
         style="font-weight:normal;font-size:2.10519px;font-family:'Courier New';-inkscape-font-specification:'Courier New, Normal'"
         id="path4401-8" />
      <path
         d="m 121.70067,127.31522 0.41014,0.52938 h 0.0329 q 0.0308,0 0.0442,0.0123 0.0134,0.0113 0.0134,0.0308 0,0.0185 -0.0134,0.0308 -0.0134,0.0123 -0.0442,0.0123 h -0.27754 q -0.0308,0 -0.0442,-0.0123 -0.0134,-0.0123 -0.0134,-0.0308 0,-0.0195 0.0134,-0.0308 0.0134,-0.0123 0.0442,-0.0123 h 0.13774 l -0.35669,-0.45845 -0.35257,0.45845 h 0.13774 q 0.0308,0 0.0442,0.0123 0.0134,0.0113 0.0134,0.0308 0,0.0185 -0.0134,0.0308 -0.0134,0.0123 -0.0442,0.0123 h -0.27549 q -0.0308,0 -0.0442,-0.0123 -0.0134,-0.0123 -0.0134,-0.0308 0,-0.0144 0.008,-0.0257 0.008,-0.0113 0.0185,-0.0144 0.0103,-0.003 0.0627,-0.003 l 0.405,-0.52938 -0.3865,-0.5006 h -0.0319 q -0.0308,0 -0.0442,-0.0113 -0.0134,-0.0123 -0.0134,-0.0319 0,-0.0195 0.0134,-0.0308 0.0134,-0.0123 0.0442,-0.0123 h 0.23539 q 0.0319,0 0.0452,0.0123 0.0134,0.0113 0.0134,0.0308 0,0.0195 -0.0134,0.0319 -0.0134,0.0113 -0.0452,0.0113 h -0.0966 l 0.33304,0.4307 0.331,-0.4307 h -0.0966 q -0.0319,0 -0.0452,-0.0113 -0.0134,-0.0123 -0.0134,-0.0319 0,-0.0195 0.0134,-0.0308 0.0134,-0.0123 0.0452,-0.0123 h 0.23642 q 0.0308,0 0.0442,0.0123 0.0134,0.0113 0.0134,0.0308 0,0.0195 -0.0134,0.0319 -0.0134,0.0113 -0.0442,0.0113 h -0.0329 z"
         style="font-weight:normal;font-size:2.10519px;font-family:'Courier New';-inkscape-font-specification:'Courier New, Normal'"
         id="path4403-2" />
      <path
         d="m 122.95473,126.62343 v 1.22117 h 0.29605 q 0.0308,0 0.0442,0.0123 0.0134,0.0113 0.0134,0.0308 0,0.0185 -0.0134,0.0308 -0.0134,0.0123 -0.0442,0.0123 h -0.67843 q -0.0308,0 -0.0442,-0.0123 -0.0134,-0.0123 -0.0134,-0.0308 0,-0.0195 0.0134,-0.0308 0.0134,-0.0123 0.0442,-0.0123 h 0.29604 v -1.10193 l -0.28165,0.0884 q -0.0206,0.006 -0.0298,0.006 -0.0154,0 -0.0288,-0.0123 -0.0123,-0.0134 -0.0123,-0.0308 0,-0.0154 0.0103,-0.0288 0.008,-0.008 0.0339,-0.0175 z"
         style="font-weight:normal;font-size:2.10519px;font-family:'Courier New';-inkscape-font-specification:'Courier New, Normal'"
         id="path4405-5" />
      <path
         d="m 124.57166,127.17953 v 0.21381 q 0,0.27857 -0.1326,0.44098 -0.10382,0.12746 -0.26212,0.12746 -0.0761,0 -0.14391,-0.0308 -0.0668,-0.0298 -0.1141,-0.0843 -0.0298,-0.0339 -0.0658,-0.10896 -0.0349,-0.075 -0.0504,-0.13775 -0.0236,-0.0884 -0.0236,-0.20661 v -0.21381 q 0,-0.27959 0.1326,-0.442 0.10382,-0.12747 0.26212,-0.12747 0.0771,0 0.14391,0.0308 0.0668,0.0298 0.1141,0.0843 0.0308,0.035 0.0658,0.10999 0.035,0.075 0.0514,0.13671 0.0226,0.0884 0.0226,0.20764 z m -0.0863,0.0113 q 0,-0.12232 -0.0349,-0.22717 -0.0339,-0.10588 -0.0771,-0.16858 -0.0257,-0.036 -0.0668,-0.0617 -0.0586,-0.036 -0.13158,-0.036 -0.14494,0 -0.22717,0.14802 -0.0822,0.14802 -0.0822,0.34538 v 0.19017 q 0,0.12232 0.0339,0.2282 0.0349,0.10587 0.0791,0.16858 0.0247,0.0349 0.0658,0.0606 0.0586,0.037 0.13261,0.037 0.14391,0 0.22614,-0.14802 0.0822,-0.14905 0.0822,-0.34641 z"
         style="font-weight:normal;font-size:2.10519px;font-family:'Courier New';-inkscape-font-specification:'Courier New, Normal'"
         id="path4407-5" />
      <path
         d="m 125.59959,127.57014 h -0.57256 v -0.0997 l 0.48004,-0.82954 h 0.17989 v 0.8429 h 0.072 q 0.0319,0 0.0452,0.0123 0.0134,0.0113 0.0134,0.0308 0,0.0185 -0.0134,0.0308 -0.0134,0.0123 -0.0452,0.0123 h -0.072 v 0.27446 h 0.072 q 0.0319,0 0.0452,0.0123 0.0134,0.0113 0.0134,0.0308 0,0.0185 -0.0134,0.0308 -0.0134,0.0123 -0.0452,0.0123 h -0.32071 q -0.0319,0 -0.0452,-0.0123 -0.0134,-0.0123 -0.0134,-0.0308 0,-0.0195 0.0134,-0.0308 0.0134,-0.0123 0.0452,-0.0123 h 0.16139 z m 0,-0.0863 v -0.75553 h -0.0452 l -0.43687,0.75553 z"
         style="font-weight:normal;font-size:2.10519px;font-family:'Courier New';-inkscape-font-specification:'Courier New, Normal'"
         id="path4409-6" />
      <path
         d="m 127.1425,127.2741 v 0.12335 h -0.88093 v -0.12335 z"
         style="font-weight:normal;font-size:2.10519px;font-family:'Courier New';-inkscape-font-specification:'Courier New, Normal'"
         id="path4411-7" />
      <path
         d="m 128.2578,127.34914 h -0.57256 v 0.49546 h 0.11616 q 0.0308,0 0.0442,0.0123 0.0134,0.0113 0.0134,0.0308 0,0.0185 -0.0134,0.0308 -0.0134,0.0123 -0.0442,0.0123 h -0.30015 q -0.0308,0 -0.0442,-0.0123 -0.0134,-0.0123 -0.0134,-0.0308 0,-0.0195 0.0134,-0.0308 0.0134,-0.0123 0.0442,-0.0123 h 0.0977 v -1.02998 h -0.0534 q -0.0319,0 -0.0452,-0.0113 -0.0134,-0.0123 -0.0134,-0.0319 0,-0.0195 0.0134,-0.0308 0.0134,-0.0123 0.0452,-0.0123 h 0.25595 q 0.0308,0 0.0442,0.0123 0.0134,0.0113 0.0134,0.0308 0,0.0195 -0.0134,0.0319 -0.0134,0.0113 -0.0442,0.0113 h -0.11616 v 0.44818 h 0.57256 v -0.44818 h -0.11513 q -0.0308,0 -0.0442,-0.0113 -0.0134,-0.0123 -0.0134,-0.0319 0,-0.0195 0.0123,-0.0308 0.0134,-0.0123 0.0452,-0.0123 h 0.25595 q 0.0319,0 0.0452,0.0123 0.0134,0.0113 0.0134,0.0308 0,0.0195 -0.0134,0.0319 -0.0134,0.0113 -0.0452,0.0113 h -0.0534 v 1.02998 h 0.0977 q 0.0308,0 0.0442,0.0123 0.0134,0.0113 0.0134,0.0308 0,0.0185 -0.0134,0.0308 -0.0134,0.0123 -0.0442,0.0123 h -0.30016 q -0.0308,0 -0.0442,-0.0123 -0.0134,-0.0123 -0.0134,-0.0308 0,-0.0195 0.0123,-0.0308 0.0134,-0.0123 0.0452,-0.0123 h 0.11513 z"
         style="font-weight:normal;font-size:2.10519px;font-family:'Courier New';-inkscape-font-specification:'Courier New, Normal'"
         id="path4413-0" />
      <path
         d="m 129.53756,126.81462 v -0.0288 q 0,-0.0308 0.0113,-0.0442 0.0123,-0.0134 0.0319,-0.0134 0.0195,0 0.0308,0.0134 0.0123,0.0134 0.0123,0.0442 v 0.21997 q 0,0.0308 -0.0123,0.0442 -0.0113,0.0134 -0.0308,0.0134 -0.0185,0 -0.0308,-0.0123 -0.0113,-0.0123 -0.0123,-0.0401 -0.005,-0.0863 -0.0894,-0.15521 -0.0833,-0.0689 -0.21895,-0.0689 -0.14288,0 -0.22717,0.074 -0.0843,0.073 -0.0843,0.17269 0,0.0514 0.0236,0.0935 0.0236,0.0421 0.0627,0.0689 0.0391,0.0257 0.0884,0.0421 0.0493,0.0154 0.15419,0.0329 0.17578,0.0288 0.24259,0.0586 0.0894,0.0401 0.13466,0.11102 0.0463,0.0709 0.0463,0.16755 0,0.14802 -0.11821,0.25287 -0.11822,0.10382 -0.31866,0.10382 -0.22512,0 -0.35977,-0.14083 v 0.0493 q 0,0.0308 -0.0123,0.0442 -0.0113,0.0134 -0.0308,0.0134 -0.0185,0 -0.0308,-0.0134 -0.0123,-0.0134 -0.0123,-0.0442 v -0.23848 q 0,-0.0319 0.0113,-0.0452 0.0123,-0.0134 0.0319,-0.0134 0.0185,0 0.0298,0.0123 0.0123,0.0123 0.0134,0.0401 0.005,0.0946 0.10073,0.17269 0.0966,0.0771 0.25904,0.0771 0.16241,0 0.25595,-0.0812 0.0946,-0.0812 0.0946,-0.19223 0,-0.0678 -0.036,-0.12026 -0.036,-0.0535 -0.1069,-0.0843 -0.0493,-0.0216 -0.20559,-0.0483 -0.21483,-0.036 -0.3094,-0.10998 -0.0946,-0.074 -0.0946,-0.21073 0,-0.13568 0.10793,-0.23334 0.10896,-0.0977 0.28679,-0.0977 0.18092,0 0.31146,0.1141 z"
         style="font-weight:normal;font-size:2.10519px;font-family:'Courier New';-inkscape-font-specification:'Courier New, Normal'"
         id="path4415-7" />
    </g>
    <ellipse
       style="font-size:10.6116px;font-family:NSimSun;-inkscape-font-specification:'NSimSun, Normal';fill:#000000;fill-opacity:1;stroke:#000000;stroke-width:0.00480651;stroke-linecap:round;stroke-linejoin:round"
       id="path1409"
       cx="153.03903"
       cy="132.25113"
       rx="1.2925991"
       ry="1.292599" />
    <rect
       style="fill:#000000;stroke:#000000;stroke-width:0.00505683;stroke-linecap:round;stroke-linejoin:round"
       id="rect1768-7-8-3-6-1"
       width="1.1813859"
       height="0.29659244"
       x="-200.11859"
       y="14.550978"
       transform="rotate(-135)" />
    <rect
       style="fill:#000000;stroke:#000000;stroke-width:0.00505683;stroke-linecap:round;stroke-linejoin:round"
       id="rect1768-7-8-3-6-1-0"
       width="1.1813859"
       height="0.29659244"
       x="-204.52399"
       y="14.550978"
       transform="rotate(-135)" />
    <rect
       style="fill:#000000;stroke:#000000;stroke-width:0.00505683;stroke-linecap:round;stroke-linejoin:round"
       id="rect1768-7-8-3-6-1-9"
       width="1.1813859"
       height="0.29659244"
       x="11.905847"
       y="201.58229"
       transform="rotate(-45)" />
    <rect
       style="fill:#000000;stroke:#000000;stroke-width:0.00505683;stroke-linecap:round;stroke-linejoin:round"
       id="rect1768-7-8-3-6-1-9-8"
       width="1.1813859"
       height="0.29659244"
       x="16.311293"
       y="201.58229"
       transform="rotate(-45)" />
    <rect
       style="fill:#000000;stroke:#000000;stroke-width:0.00505683;stroke-linecap:round;stroke-linejoin:round"
       id="rect1768-7-8-3-6-1-8"
       width="1.1813859"
       height="0.29659244"
       x="-151.42702"
       y="-132.39941"
       transform="scale(-1)" />
    <rect
       style="fill:#000000;stroke:#000000;stroke-width:0.00505683;stroke-linecap:round;stroke-linejoin:round"
       id="rect1768-7-8-3-6-1-0-8"
       width="1.1813859"
       height="0.29659244"
       x="-155.83241"
       y="-132.39941"
       transform="scale(-1)" />
    <rect
       style="fill:#000000;stroke:#000000;stroke-width:0.00505683;stroke-linecap:round;stroke-linejoin:round"
       id="rect1768-7-8-3-6-1-9-1"
       width="1.1813859"
       height="0.29659244"
       x="-135.04451"
       y="152.89075"
       transform="rotate(-90)" />
    <rect
       style="fill:#000000;stroke:#000000;stroke-width:0.00505683;stroke-linecap:round;stroke-linejoin:round"
       id="rect1768-7-8-3-6-1-9-8-3"
       width="1.1813859"
       height="0.29659244"
       x="-130.6391"
       y="152.89072"
       transform="rotate(-90)" />
    <rect
       style="fill:none;stroke:#000000;stroke-width:0.266098;stroke-linecap:round;stroke-linejoin:round;stroke-dasharray:none"
       id="rect3943"
       width="42.771927"
       height="13.269762"
       x="119.16608"
       y="123.53362" />
  </g>
</svg>
