<?xml version="1.0" encoding="UTF-8" standalone="no"?>
<!-- Created with Inkscape (http://www.inkscape.org/) -->

<svg
   width="210mm"
   height="297mm"
   viewBox="0 0 210 297"
   version="1.1"
   id="svg6720"
   sodipodi:docname="MX104-HS_LabelChina.svg"
   inkscape:version="1.2.2 (732a01da63, 2022-12-09)"
   xmlns:inkscape="http://www.inkscape.org/namespaces/inkscape"
   xmlns:sodipodi="http://sodipodi.sourceforge.net/DTD/sodipodi-0.dtd"
   xmlns="http://www.w3.org/2000/svg"
   xmlns:svg="http://www.w3.org/2000/svg">
  <sodipodi:namedview
     id="namedview6722"
     pagecolor="#ffffff"
     bordercolor="#000000"
     borderopacity="0.25"
     inkscape:showpageshadow="2"
     inkscape:pageopacity="0.0"
     inkscape:pagecheckerboard="0"
     inkscape:deskcolor="#d1d1d1"
     inkscape:document-units="mm"
     showgrid="false"
     inkscape:zoom="11.313708"
     inkscape:cx="185.92489"
     inkscape:cy="246.73607"
     inkscape:window-width="1916"
     inkscape:window-height="2041"
     inkscape:window-x="4782"
     inkscape:window-y="0"
     inkscape:window-maximized="0"
     inkscape:current-layer="layer1" />
  <defs
     id="defs6717">
    <rect
       x="151.25"
       y="253.625"
       width="86.125"
       height="30.806751"
       id="rect7860" />
    <rect
       x="157.56962"
       y="243.74504"
       width="74.10755"
       height="18.35575"
       id="rect7784" />
  </defs>
  <g
     inkscape:label="Layer 1"
     inkscape:groupmode="layer"
     id="layer1">
    <text
       xml:space="preserve"
       transform="scale(0.26458333)"
       id="text7782"
       style="font-style:normal;font-variant:normal;font-weight:normal;font-stretch:normal;font-size:17.3333px;font-family:'Mongolian Baiti';-inkscape-font-specification:'Mongolian Baiti, Normal';font-variant-ligatures:normal;font-variant-caps:normal;font-variant-numeric:normal;font-variant-east-asian:normal;white-space:pre;shape-inside:url(#rect7784);display:inline;fill:none;stroke:#000000;stroke-width:0.570709;stroke-linecap:round;stroke-linejoin:round" />
    <text
       xml:space="preserve"
       transform="scale(0.26458333)"
       id="text7858"
       style="font-style:normal;font-variant:normal;font-weight:normal;font-stretch:normal;font-size:17.3333px;font-family:'Mongolian Baiti';-inkscape-font-specification:'Mongolian Baiti, Normal';font-variant-ligatures:normal;font-variant-caps:normal;font-variant-numeric:normal;font-variant-east-asian:normal;white-space:pre;shape-inside:url(#rect7860);display:inline;fill:none;stroke:#000000;stroke-width:0.570709;stroke-linecap:round;stroke-linejoin:round" />
    <g
       aria-label="Made in China*"
       id="text599"
       style="font-size:1.69506px;font-family:NSimSun;-inkscape-font-specification:'NSimSun, Normal';fill:none;stroke:#000000;stroke-width:0.120123;stroke-linecap:round;stroke-linejoin:round"
       transform="matrix(1.5504623,0,0,1.5504623,-22.339233,-35.292863)">
      <path
         d="m 41.177408,64.957979 h -0.07946 l -0.267336,-0.608335 h -0.01324 v 0.829321 h 0.128288 q 0.02483,0 0.03559,0.0099 0.01076,0.0091 0.01076,0.02483 0,0.0149 -0.01076,0.02483 -0.01076,0.0099 -0.03559,0.0099 h -0.256576 q -0.02483,0 -0.03559,-0.0099 -0.01076,-0.0099 -0.01076,-0.02483 0,-0.01573 0.01076,-0.02483 0.01076,-0.0099 0.03559,-0.0099 h 0.05876 v -0.829321 h -0.04387 q -0.02483,0 -0.03559,-0.0091 -0.01076,-0.0099 -0.01076,-0.02566 0,-0.01573 0.01076,-0.02483 0.01076,-0.0099 0.03559,-0.0099 h 0.170499 l 0.263198,0.59923 0.259059,-0.59923 h 0.170499 q 0.02566,0 0.03642,0.0099 0.01076,0.0091 0.01076,0.02483 0,0.01573 -0.01076,0.02566 -0.01076,0.0091 -0.03642,0.0091 H 41.5242 v 0.829321 h 0.05794 q 0.02566,0 0.03642,0.0099 0.01076,0.0091 0.01076,0.02483 0,0.0149 -0.01076,0.02483 -0.01076,0.0099 -0.03642,0.0099 h -0.255748 q -0.02483,0 -0.03642,-0.0099 -0.01076,-0.0099 -0.01076,-0.02483 0,-0.01573 0.01076,-0.02483 0.01076,-0.0099 0.03642,-0.0099 h 0.128288 v -0.829321 h -0.0149 z"
         style="font-family:'Courier New';-inkscape-font-specification:'Courier New, Normal'"
         id="path1291" />
      <path
         d="m 42.348555,65.248489 v -0.100147 q -0.151463,0.12746 -0.323617,0.12746 -0.124978,0 -0.19533,-0.0629 -0.07035,-0.06373 -0.07035,-0.155601 0,-0.100976 0.0927,-0.176293 0.0927,-0.07532 0.270647,-0.07532 0.048,0 0.104286,0.0066 0.05628,0.0058 0.121667,0.01904 v -0.112563 q 0,-0.05711 -0.05297,-0.09932 -0.05297,-0.04221 -0.158911,-0.04221 -0.08111,0 -0.227609,0.04718 -0.02649,0.0083 -0.03393,0.0083 -0.01324,0 -0.02318,-0.0099 -0.0091,-0.0099 -0.0091,-0.02483 0,-0.01407 0.0083,-0.02235 0.01159,-0.01242 0.09353,-0.03393 0.129116,-0.03476 0.195329,-0.03476 0.131599,0 0.205261,0.06539 0.07366,0.06456 0.07366,0.146497 v 0.460182 h 0.0927 q 0.02566,0 0.03642,0.0099 0.01076,0.0091 0.01076,0.02483 0,0.0149 -0.01076,0.02483 -0.01076,0.0099 -0.03642,0.0099 z m 0,-0.345964 q -0.04883,-0.01407 -0.103458,-0.02069 -0.05463,-0.0066 -0.115046,-0.0066 -0.151463,0 -0.236712,0.06539 -0.06456,0.04883 -0.06456,0.116701 0,0.0629 0.04883,0.105941 0.04966,0.04304 0.144014,0.04304 0.09022,0 0.167189,-0.03559 0.0778,-0.03642 0.159739,-0.115046 z"
         style="font-family:'Courier New';-inkscape-font-specification:'Courier New, Normal'"
         id="path1293" />
      <path
         d="m 43.50646,64.209769 v 0.969196 h 0.0927 q 0.02566,0 0.03642,0.0099 0.01076,0.0091 0.01076,0.02483 0,0.0149 -0.01076,0.02483 -0.01076,0.0099 -0.03642,0.0099 h -0.16305 v -0.13822 q -0.120839,0.165533 -0.307064,0.165533 -0.09435,0 -0.181259,-0.04966 -0.08608,-0.05049 -0.136565,-0.143186 -0.04966,-0.0927 -0.04966,-0.191191 0,-0.09932 0.04966,-0.191191 0.05049,-0.0927 0.136565,-0.143186 0.0869,-0.05049 0.182087,-0.05049 0.182086,0 0.306236,0.165533 V 64.28012 h -0.0927 q -0.02566,0 -0.03642,-0.0099 -0.01076,-0.0099 -0.01076,-0.02566 0,-0.0149 0.01076,-0.02483 0.01076,-0.0099 0.03642,-0.0099 z m -0.07035,0.681996 q 0,-0.132426 -0.08939,-0.22347 -0.08939,-0.09104 -0.21271,-0.09104 -0.12415,0 -0.213538,0.09104 -0.08939,0.09104 -0.08939,0.22347 0,0.131599 0.08939,0.22347 0.08939,0.09104 0.213538,0.09104 0.123322,0 0.21271,-0.09104 0.08939,-0.09187 0.08939,-0.22347 z"
         style="font-family:'Courier New';-inkscape-font-specification:'Courier New, Normal'"
         id="path1295" />
      <path
         d="m 44.559251,64.906663 h -0.708482 q 0.01821,0.13491 0.112563,0.217676 0.09518,0.08194 0.235057,0.08194 0.0778,0 0.16305,-0.02566 0.08525,-0.02566 0.139048,-0.06787 0.01573,-0.01242 0.02731,-0.01242 0.01324,0 0.02317,0.01076 0.0099,0.0099 0.0099,0.024 0,0.01407 -0.01324,0.02731 -0.03973,0.04138 -0.141531,0.0778 -0.100975,0.03559 -0.207744,0.03559 -0.178776,0 -0.298788,-0.116701 -0.119184,-0.117528 -0.119184,-0.283889 0,-0.151463 0.111735,-0.259887 0.112563,-0.108424 0.278096,-0.108424 0.170499,0 0.280579,0.111735 0.110079,0.110907 0.108424,0.288027 z m -0.07035,-0.07035 q -0.02069,-0.115046 -0.109252,-0.187053 -0.08773,-0.07201 -0.2094,-0.07201 -0.121667,0 -0.209399,0.07118 -0.08773,0.07118 -0.109252,0.18788 z"
         style="font-family:'Courier New';-inkscape-font-specification:'Courier New, Normal'"
         id="path1297" />
      <path
         d="m 46.251828,64.175007 v 0.179603 h -0.102631 v -0.179603 z m 0.0025,0.356724 v 0.647234 h 0.27313 q 0.02566,0 0.03642,0.0099 0.01076,0.0091 0.01076,0.02483 0,0.0149 -0.01076,0.02483 -0.01076,0.0099 -0.03642,0.0099 h -0.615784 q -0.02483,0 -0.03559,-0.0099 -0.01076,-0.0099 -0.01076,-0.02483 0,-0.01573 0.01076,-0.02483 0.01076,-0.0099 0.03559,-0.0099 h 0.27313 v -0.576883 h -0.202778 q -0.02483,0 -0.03642,-0.0099 -0.01076,-0.0099 -0.01076,-0.02483 0,-0.01572 0.01076,-0.02566 0.01076,-0.0099 0.03642,-0.0099 z"
         style="font-family:'Courier New';-inkscape-font-specification:'Courier New, Normal'"
         id="path1299" />
      <path
         d="m 47.00997,64.531731 v 0.105113 q 0.07283,-0.07366 0.131599,-0.101803 0.05877,-0.02814 0.132427,-0.02814 0.07946,0 0.144841,0.03393 0.04635,0.02483 0.08359,0.08277 0.03807,0.05711 0.03807,0.117528 v 0.437835 h 0.05877 q 0.02483,0 0.03559,0.0099 0.01076,0.0091 0.01076,0.02483 0,0.0149 -0.01076,0.02483 -0.01076,0.0099 -0.03559,0.0099 h -0.186225 q -0.02566,0 -0.03642,-0.0099 -0.01076,-0.0099 -0.01076,-0.02483 0,-0.01573 0.01076,-0.02483 0.01076,-0.0099 0.03642,-0.0099 h 0.05794 v -0.426248 q 0,-0.07366 -0.0538,-0.124149 -0.0538,-0.05132 -0.144014,-0.05132 -0.0687,0 -0.119184,0.02814 -0.05049,0.02731 -0.144014,0.137392 v 0.43618 h 0.07863 q 0.02483,0 0.03559,0.0099 0.01076,0.0091 0.01076,0.02483 0,0.0149 -0.01076,0.02483 -0.01076,0.0099 -0.03559,0.0099 h -0.226781 q -0.02483,0 -0.03559,-0.0099 -0.01076,-0.0099 -0.01076,-0.02483 0,-0.01573 0.01076,-0.02483 0.01076,-0.0099 0.03559,-0.0099 h 0.07863 v -0.576883 h -0.05876 q -0.02483,0 -0.03559,-0.0099 -0.01076,-0.0099 -0.01076,-0.02566 0,-0.0149 0.01076,-0.02483 0.01076,-0.0099 0.03559,-0.0099 z"
         style="font-family:'Courier New';-inkscape-font-specification:'Courier New, Normal'"
         id="path1301" />
      <path
         d="m 49.574907,64.375302 v -0.04883 q 0,-0.02483 0.0091,-0.03559 0.0099,-0.01076 0.02566,-0.01076 0.01573,0 0.02483,0.01076 0.0099,0.01076 0.0099,0.03559 v 0.192847 q 0,0.02566 -0.0099,0.03642 -0.0091,0.01076 -0.02483,0.01076 -0.01407,0 -0.024,-0.0099 -0.0091,-0.0099 -0.01076,-0.03228 -0.0041,-0.06952 -0.07532,-0.123323 -0.09601,-0.07366 -0.218504,-0.07366 -0.08028,0 -0.151463,0.03559 -0.05297,0.02566 -0.08442,0.0629 -0.05463,0.06456 -0.08691,0.143187 -0.02317,0.05794 -0.02317,0.130771 v 0.121667 q 0,0.155601 0.112563,0.270647 0.112562,0.114217 0.261542,0.114217 0.08939,0 0.15974,-0.0389 0.07118,-0.0389 0.137392,-0.117528 0.01407,-0.01738 0.03145,-0.01738 0.0149,0 0.024,0.0091 0.0091,0.0091 0.0091,0.02317 0,0.01904 -0.03559,0.05794 -0.06787,0.07614 -0.153118,0.115046 -0.08442,0.03807 -0.171327,0.03807 -0.07532,0 -0.153119,-0.02897 -0.05959,-0.02235 -0.09849,-0.05214 -0.0389,-0.0298 -0.09601,-0.100148 -0.05628,-0.07118 -0.07697,-0.130771 -0.02069,-0.06042 -0.02069,-0.132426 v -0.141531 q 0,-0.102631 0.05463,-0.2094 0.05545,-0.107596 0.150636,-0.164705 0.09601,-0.05794 0.207744,-0.05794 0.172154,0 0.296304,0.117529 z"
         style="font-family:'Courier New';-inkscape-font-specification:'Courier New, Normal'"
         id="path1303" />
      <path
         d="m 50.057436,64.209769 v 0.427903 q 0.06621,-0.07201 0.126633,-0.100975 0.06125,-0.0298 0.136565,-0.0298 0.08111,0 0.137393,0.02897 0.05711,0.02814 0.09518,0.08773 0.03807,0.05876 0.03807,0.124149 v 0.431214 h 0.0778 q 0.02566,0 0.03559,0.0099 0.01076,0.0091 0.01076,0.02483 0,0.0149 -0.01076,0.02483 -0.0099,0.0099 -0.03559,0.0099 h -0.225952 q -0.02566,0 -0.03642,-0.0099 -0.01076,-0.0099 -0.01076,-0.02483 0,-0.01573 0.01076,-0.02483 0.01076,-0.0099 0.03642,-0.0099 h 0.0778 v -0.426248 q 0,-0.07532 -0.05463,-0.125805 -0.0538,-0.05049 -0.150635,-0.05049 -0.07615,0 -0.129943,0.03724 -0.0389,0.02648 -0.128289,0.124977 v 0.440318 h 0.07863 q 0.02483,0 0.03559,0.0099 0.01076,0.0091 0.01076,0.02483 0,0.0149 -0.01076,0.02483 -0.01076,0.0099 -0.03559,0.0099 h -0.226781 q -0.02483,0 -0.03559,-0.0099 -0.01076,-0.0099 -0.01076,-0.02483 0,-0.01573 0.01076,-0.02483 0.01076,-0.0099 0.03559,-0.0099 h 0.07863 V 64.28012 h -0.09353 q -0.02483,0 -0.03559,-0.0099 -0.01076,-0.0099 -0.01076,-0.02566 0,-0.0149 0.01076,-0.02483 0.01076,-0.0099 0.03559,-0.0099 z"
         style="font-family:'Courier New';-inkscape-font-specification:'Courier New, Normal'"
         id="path1305" />
      <path
         d="m 51.337836,64.175007 v 0.179603 h -0.102631 v -0.179603 z m 0.0025,0.356724 v 0.647234 h 0.27313 q 0.02566,0 0.03642,0.0099 0.01076,0.0091 0.01076,0.02483 0,0.0149 -0.01076,0.02483 -0.01076,0.0099 -0.03642,0.0099 h -0.615783 q -0.02483,0 -0.03559,-0.0099 -0.01076,-0.0099 -0.01076,-0.02483 0,-0.01573 0.01076,-0.02483 0.01076,-0.0099 0.03559,-0.0099 h 0.27313 v -0.576883 h -0.202779 q -0.02483,0 -0.03642,-0.0099 -0.01076,-0.0099 -0.01076,-0.02483 0,-0.01572 0.01076,-0.02566 0.01076,-0.0099 0.03642,-0.0099 z"
         style="font-family:'Courier New';-inkscape-font-specification:'Courier New, Normal'"
         id="path1307" />
      <path
         d="m 52.095977,64.531731 v 0.105113 q 0.07284,-0.07366 0.131599,-0.101803 0.05877,-0.02814 0.132427,-0.02814 0.07946,0 0.144841,0.03393 0.04635,0.02483 0.0836,0.08277 0.03807,0.05711 0.03807,0.117528 v 0.437835 h 0.05877 q 0.02483,0 0.03559,0.0099 0.01076,0.0091 0.01076,0.02483 0,0.0149 -0.01076,0.02483 -0.01076,0.0099 -0.03559,0.0099 h -0.186225 q -0.02566,0 -0.03642,-0.0099 -0.01076,-0.0099 -0.01076,-0.02483 0,-0.01573 0.01076,-0.02483 0.01076,-0.0099 0.03642,-0.0099 h 0.05794 v -0.426248 q 0,-0.07366 -0.0538,-0.124149 -0.0538,-0.05132 -0.144014,-0.05132 -0.0687,0 -0.119184,0.02814 -0.05049,0.02731 -0.144014,0.137392 v 0.43618 h 0.07863 q 0.02483,0 0.03559,0.0099 0.01076,0.0091 0.01076,0.02483 0,0.0149 -0.01076,0.02483 -0.01076,0.0099 -0.03559,0.0099 h -0.226781 q -0.02483,0 -0.03559,-0.0099 -0.01076,-0.0099 -0.01076,-0.02483 0,-0.01573 0.01076,-0.02483 0.01076,-0.0099 0.03559,-0.0099 h 0.07863 v -0.576883 h -0.05877 q -0.02483,0 -0.03559,-0.0099 -0.01076,-0.0099 -0.01076,-0.02566 0,-0.0149 0.01076,-0.02483 0.01076,-0.0099 0.03559,-0.0099 z"
         style="font-family:'Courier New';-inkscape-font-specification:'Courier New, Normal'"
         id="path1309" />
      <path
         d="m 53.537773,65.248489 v -0.100147 q -0.151463,0.12746 -0.323618,0.12746 -0.124977,0 -0.195329,-0.0629 -0.07035,-0.06373 -0.07035,-0.155601 0,-0.100976 0.0927,-0.176293 0.0927,-0.07532 0.270647,-0.07532 0.048,0 0.104286,0.0066 0.05628,0.0058 0.121667,0.01904 v -0.112563 q 0,-0.05711 -0.05297,-0.09932 -0.05297,-0.04221 -0.158912,-0.04221 -0.08111,0 -0.227608,0.04718 -0.02649,0.0083 -0.03393,0.0083 -0.01324,0 -0.02318,-0.0099 -0.0091,-0.0099 -0.0091,-0.02483 0,-0.01407 0.0083,-0.02235 0.01159,-0.01242 0.09353,-0.03393 0.129116,-0.03476 0.19533,-0.03476 0.131599,0 0.205261,0.06539 0.07366,0.06456 0.07366,0.146497 v 0.460182 h 0.0927 q 0.02566,0 0.03642,0.0099 0.01076,0.0091 0.01076,0.02483 0,0.0149 -0.01076,0.02483 -0.01076,0.0099 -0.03642,0.0099 z m 0,-0.345964 q -0.04883,-0.01407 -0.103459,-0.02069 -0.05463,-0.0066 -0.115045,-0.0066 -0.151463,0 -0.236713,0.06539 -0.06456,0.04883 -0.06456,0.116701 0,0.0629 0.04883,0.105941 0.04966,0.04304 0.144013,0.04304 0.09022,0 0.167189,-0.03559 0.0778,-0.03642 0.15974,-0.115046 z"
         style="font-family:'Courier New';-inkscape-font-specification:'Courier New, Normal'"
         id="path1311" />
      <path
         d="m 54.316606,64.494486 v -0.237541 q 0,-0.02566 0.0099,-0.03642 0.0099,-0.01076 0.02566,-0.01076 0.0149,0 0.02483,0.01076 0.0099,0.01076 0.0099,0.03642 v 0.237541 l 0.225953,-0.07366 q 0.01573,-0.005 0.024,-0.005 0.01324,0 0.02318,0.01076 0.0099,0.0099 0.0099,0.024 0,0.01241 -0.0074,0.02152 -0.0066,0.0091 -0.02814,0.01573 l -0.225953,0.07366 0.139876,0.192018 q 0.01324,0.01904 0.01324,0.0298 0,0.0149 -0.01076,0.02566 -0.0099,0.0099 -0.024,0.0099 -0.01821,0 -0.03559,-0.024 l -0.139876,-0.192846 -0.139875,0.192846 q -0.01738,0.024 -0.03476,0.024 -0.0149,0 -0.02566,-0.0099 -0.0099,-0.01076 -0.0099,-0.02566 0,-0.01076 0.01407,-0.0298 l 0.139876,-0.192018 -0.226781,-0.07449 q -0.02069,-0.0066 -0.02814,-0.0149 -0.0066,-0.0091 -0.0066,-0.02152 0,-0.01407 0.0099,-0.024 0.0099,-0.01076 0.02235,-0.01076 0.0091,0 0.02483,0.005 z"
         style="font-family:'Courier New';-inkscape-font-specification:'Courier New, Normal'"
         id="path1313" />
    </g>
    <g
       aria-label="Probably*"
       id="text1289"
       style="font-size:0.809021px;font-family:'Courier New';-inkscape-font-specification:'Courier New, Normal';fill:none;stroke:#000000;stroke-width:0.0573316;stroke-linecap:round;stroke-linejoin:round"
       transform="matrix(1.5504623,0,0,1.5504623,-22.339233,-35.292863)">
      <path
         d="m 45.207064,65.837607 v 0.156432 h 0.113769 q 0.01185,0 0.01699,0.0047 0.0051,0.0043 0.0051,0.01185 0,0.0071 -0.0051,0.01185 -0.0051,0.0047 -0.01699,0.0047 h -0.19159 q -0.01185,0 -0.01699,-0.0047 -0.0051,-0.0047 -0.0051,-0.01185 0,-0.0075 0.0051,-0.01185 0.0051,-0.0047 0.01699,-0.0047 h 0.04464 v -0.39582 h -0.04464 q -0.01185,0 -0.01699,-0.0043 -0.0051,-0.0047 -0.0051,-0.01225 0,-0.0075 0.0051,-0.01185 0.0051,-0.0047 0.01699,-0.0047 h 0.192775 q 0.06834,0 0.111398,0.04029 0.04345,0.04029 0.04345,0.09441 0,0.032 -0.01422,0.05767 -0.01383,0.02568 -0.03358,0.04029 -0.02963,0.02212 -0.06123,0.03239 -0.02291,0.0075 -0.05688,0.0075 z m 0,-0.03318 h 0.105868 q 0.03674,0 0.06873,-0.0162 0.03239,-0.01659 0.04701,-0.04029 0.01501,-0.0237 0.01501,-0.04819 0,-0.03911 -0.03358,-0.07031 -0.03358,-0.03121 -0.08493,-0.03121 h -0.118114 z"
         style="stroke-width:0.0573322"
         id="path1316" />
      <path
         d="m 45.724948,65.685126 v 0.08375 q 0.06479,-0.05846 0.09678,-0.07506 0.03239,-0.01699 0.05965,-0.01699 0.02963,0 0.05491,0.02015 0.02568,0.01975 0.02568,0.03002 0,0.0075 -0.0051,0.01264 -0.0047,0.0047 -0.01225,0.0047 -0.004,0 -0.0067,-0.0012 -0.0028,-0.0016 -0.01027,-0.0091 -0.01383,-0.01383 -0.0241,-0.01896 -0.01027,-0.0051 -0.02015,-0.0051 -0.02173,0 -0.05254,0.01738 -0.03042,0.01738 -0.105868,0.08493 V 65.994 h 0.146951 q 0.01225,0 0.01738,0.0047 0.0051,0.0043 0.0051,0.01185 0,0.0071 -0.0051,0.01185 -0.0051,0.0047 -0.01738,0.0047 h -0.260324 q -0.01185,0 -0.01699,-0.0043 -0.0051,-0.0047 -0.0051,-0.01185 0,-0.0067 0.0047,-0.01106 0.0051,-0.0047 0.01738,-0.0047 h 0.08019 v -0.276521 h -0.06123 q -0.01185,0 -0.01699,-0.0047 -0.0051,-0.0047 -0.0051,-0.01225 0,-0.0071 0.0047,-0.01185 0.0051,-0.0047 0.01738,-0.0047 z"
         style="stroke-width:0.0573322"
         id="path1318" />
      <path
         d="m 46.435607,65.856964 q 0,0.07585 -0.05451,0.12957 -0.05412,0.05372 -0.130755,0.05372 -0.07743,0 -0.131545,-0.05372 -0.05412,-0.05412 -0.05412,-0.12957 0,-0.07585 0.05412,-0.12957 0.05412,-0.05412 0.131545,-0.05412 0.07664,0 0.130755,0.05372 0.05451,0.05372 0.05451,0.129965 z m -0.03358,0 q 0,-0.06242 -0.04464,-0.106263 -0.04424,-0.04385 -0.107448,-0.04385 -0.06321,0 -0.107843,0.04424 -0.04424,0.04385 -0.04424,0.105868 0,0.06162 0.04424,0.105868 0.04464,0.04424 0.107843,0.04424 0.0632,0 0.107448,-0.04385 0.04464,-0.04424 0.04464,-0.106263 z"
         style="stroke-width:0.0573322"
         id="path1320" />
      <path
         d="m 46.610605,65.531459 v 0.220032 q 0.06004,-0.07822 0.144976,-0.07822 0.07268,0 0.124434,0.05293 0.05175,0.05254 0.05175,0.129175 0,0.07743 -0.05254,0.13115 -0.05214,0.05372 -0.123644,0.05372 -0.08691,0 -0.144976,-0.07822 v 0.06518 h -0.07782 q -0.01185,0 -0.01699,-0.0047 -0.0051,-0.0047 -0.0051,-0.01185 0,-0.0075 0.0051,-0.01185 0.0051,-0.0047 0.01699,-0.0047 h 0.04464 v -0.429002 h -0.04464 q -0.01185,0 -0.01699,-0.0047 -0.0051,-0.0047 -0.0051,-0.01224 0,-0.0071 0.0051,-0.01185 0.0051,-0.0047 0.01699,-0.0047 z m 0.287977,0.325505 q 0,-0.06281 -0.04306,-0.106263 -0.04306,-0.04385 -0.100732,-0.04385 -0.05767,0 -0.100733,0.04385 -0.04306,0.04345 -0.04306,0.106263 0,0.06281 0.04306,0.106658 0.04306,0.04345 0.100733,0.04345 0.05767,0 0.100732,-0.04345 0.04306,-0.04385 0.04306,-0.106658 z"
         style="stroke-width:0.0573322"
         id="path1322" />
      <path
         d="m 47.316523,66.027222 v -0.0478 q -0.07229,0.06083 -0.154456,0.06083 -0.05965,0 -0.09323,-0.03002 -0.03358,-0.03042 -0.03358,-0.07426 0,-0.04819 0.04424,-0.08414 0.04424,-0.03595 0.129175,-0.03595 0.02291,0 0.04977,0.0032 0.02686,0.0028 0.05807,0.0091 v -0.05372 q 0,-0.02726 -0.02528,-0.0474 -0.02528,-0.02015 -0.07585,-0.02015 -0.03871,0 -0.108634,0.02252 -0.01264,0.004 -0.0162,0.004 -0.0063,0 -0.01106,-0.0047 -0.0043,-0.0047 -0.0043,-0.01185 0,-0.0067 0.004,-0.01067 0.0055,-0.0059 0.04464,-0.0162 0.06162,-0.01659 0.09323,-0.01659 0.06281,0 0.09797,0.03121 0.03516,0.03081 0.03516,0.06992 v 0.219636 h 0.04424 q 0.01225,0 0.01738,0.0047 0.0051,0.0043 0.0051,0.01185 0,0.0071 -0.0051,0.01185 -0.0051,0.0047 -0.01738,0.0047 z m 0,-0.165123 q -0.02331,-0.0067 -0.04938,-0.0099 -0.02607,-0.0032 -0.05491,-0.0032 -0.07229,0 -0.112978,0.03121 -0.03081,0.02331 -0.03081,0.0557 0,0.03002 0.02331,0.05056 0.0237,0.02054 0.06873,0.02054 0.04306,0 0.0798,-0.01699 0.03713,-0.01738 0.07624,-0.05491 z"
         style="stroke-width:0.0573322"
         id="path1324" />
      <path
         d="m 47.581588,65.531459 v 0.220032 q 0.06004,-0.07822 0.144976,-0.07822 0.07269,0 0.124435,0.05293 0.05175,0.05254 0.05175,0.129175 0,0.07743 -0.05254,0.13115 -0.05214,0.05372 -0.123644,0.05372 -0.08691,0 -0.144976,-0.07822 v 0.06518 h -0.07782 q -0.01185,0 -0.01699,-0.0047 -0.0051,-0.0047 -0.0051,-0.01185 0,-0.0075 0.0051,-0.01185 0.0051,-0.0047 0.01699,-0.0047 h 0.04464 v -0.429002 h -0.04464 q -0.01185,0 -0.01699,-0.0047 -0.0051,-0.0047 -0.0051,-0.01224 0,-0.0071 0.0051,-0.01185 0.0051,-0.0047 0.01699,-0.0047 z m 0.287977,0.325505 q 0,-0.06281 -0.04306,-0.106263 -0.04306,-0.04385 -0.100733,-0.04385 -0.05767,0 -0.100733,0.04385 -0.04306,0.04345 -0.04306,0.106263 0,0.06281 0.04306,0.106658 0.04306,0.04345 0.100733,0.04345 0.05767,0 0.100733,-0.04345 0.04306,-0.04385 0.04306,-0.106658 z"
         style="stroke-width:0.0573322"
         id="path1326" />
      <path
         d="m 48.208895,65.531459 v 0.46258 h 0.13036 q 0.01225,0 0.01738,0.0047 0.0051,0.0043 0.0051,0.01185 0,0.0071 -0.0051,0.01185 -0.0051,0.0047 -0.01738,0.0047 h -0.293902 q -0.01185,0 -0.01699,-0.0047 -0.0051,-0.0047 -0.0051,-0.01185 0,-0.0075 0.0051,-0.01185 0.0051,-0.0047 0.01699,-0.0047 h 0.13036 v -0.429002 h -0.0956 q -0.01185,0 -0.01738,-0.0047 -0.0051,-0.0047 -0.0051,-0.01224 0,-0.0071 0.0051,-0.01185 0.0051,-0.0047 0.01738,-0.0047 z"
         style="stroke-width:0.0573322"
         id="path1328" />
      <path
         d="m 48.679771,66.027222 -0.154062,-0.308519 h -0.0099 q -0.01185,0 -0.01699,-0.0047 -0.0051,-0.0047 -0.0051,-0.01185 0,-0.0051 0.0024,-0.0091 0.0028,-0.0043 0.0067,-0.0059 0.0043,-0.002 0.01304,-0.002 h 0.09086 q 0.01185,0 0.01699,0.0047 0.0051,0.0047 0.0051,0.01225 0,0.0071 -0.0051,0.01185 -0.0051,0.0047 -0.01699,0.0047 h -0.04464 l 0.135495,0.272176 0.13352,-0.272176 h -0.04464 q -0.01185,0 -0.01699,-0.0047 -0.0051,-0.0047 -0.0051,-0.01225 0,-0.0071 0.0051,-0.01185 0.0051,-0.0047 0.01699,-0.0047 h 0.09046 q 0.01225,0 0.01738,0.0047 0.0051,0.0047 0.0051,0.01225 0,0.0051 -0.0032,0.0095 -0.0032,0.0043 -0.0071,0.0059 -0.0039,0.0012 -0.02212,0.0012 l -0.210156,0.427818 h 0.05175 q 0.01185,0 0.01699,0.0043 0.0051,0.0047 0.0051,0.01225 0,0.0071 -0.0051,0.01185 -0.0051,0.0047 -0.01699,0.0047 h -0.191194 q -0.01185,0 -0.01699,-0.0047 -0.0051,-0.0043 -0.0051,-0.01185 0,-0.0075 0.0051,-0.01225 0.0051,-0.0043 0.01699,-0.0043 h 0.103893 z"
         style="stroke-width:0.0573322"
         id="path1330" />
      <path
         d="m 49.144721,65.66735 v -0.113374 q 0,-0.01225 0.0047,-0.01738 0.0047,-0.0051 0.01225,-0.0051 0.0071,0 0.01185,0.0051 0.0047,0.0051 0.0047,0.01738 v 0.113374 l 0.107843,-0.03516 q 0.0075,-0.0024 0.01146,-0.0024 0.0063,0 0.01106,0.0051 0.0047,0.0047 0.0047,0.01146 0,0.0059 -0.0036,0.01027 -0.0032,0.0043 -0.01343,0.0075 l -0.107843,0.03516 0.06676,0.09165 q 0.0063,0.0091 0.0063,0.01422 0,0.0071 -0.0051,0.01225 -0.0047,0.0047 -0.01146,0.0047 -0.0087,0 -0.01699,-0.01146 l -0.06676,-0.09204 -0.06676,0.09204 q -0.0083,0.01146 -0.01659,0.01146 -0.0071,0 -0.01225,-0.0047 -0.0047,-0.0051 -0.0047,-0.01225 0,-0.0051 0.0067,-0.01422 l 0.06676,-0.09165 -0.108238,-0.03555 q -0.0099,-0.0032 -0.01343,-0.0071 -0.0032,-0.0043 -0.0032,-0.01027 0,-0.0067 0.0047,-0.01146 0.0047,-0.0051 0.01067,-0.0051 0.0043,0 0.01185,0.0024 z"
         style="stroke-width:0.0573322"
         id="path1332" />
    </g>
  </g>
</svg>
