<?xml version="1.0" encoding="UTF-8" standalone="no"?>
<!-- Created with Inkscape (http://www.inkscape.org/) -->

<svg
   width="210mm"
   height="297mm"
   viewBox="0 0 210 297"
   version="1.1"
   id="svg2766"
   sodipodi:docname="MX104-HS_label.svg"
   inkscape:version="1.2.2 (732a01da63, 2022-12-09)"
   xmlns:inkscape="http://www.inkscape.org/namespaces/inkscape"
   xmlns:sodipodi="http://sodipodi.sourceforge.net/DTD/sodipodi-0.dtd"
   xmlns="http://www.w3.org/2000/svg"
   xmlns:svg="http://www.w3.org/2000/svg">
  <sodipodi:namedview
     id="namedview2768"
     pagecolor="#ffffff"
     bordercolor="#000000"
     borderopacity="0.25"
     inkscape:showpageshadow="2"
     inkscape:pageopacity="0.0"
     inkscape:pagecheckerboard="0"
     inkscape:deskcolor="#d1d1d1"
     inkscape:document-units="mm"
     showgrid="false"
     inkscape:zoom="5.306515"
     inkscape:cx="429.1894"
     inkscape:cy="486.38325"
     inkscape:window-width="1913"
     inkscape:window-height="1620"
     inkscape:window-x="2880"
     inkscape:window-y="0"
     inkscape:window-maximized="0"
     inkscape:current-layer="layer1" />
  <defs
     id="defs2763">
    <rect
       x="441.93216"
       y="504.69413"
       width="27.983041"
       height="21.175588"
       id="rect3076" />
  </defs>
  <g
     inkscape:label="Layer 1"
     inkscape:groupmode="layer"
     id="layer1">
    <g
       aria-label="MX104-HS"
       id="text429-7"
       style="font-weight:300;font-size:1.35334px;font-family:Calibri;-inkscape-font-specification:'Calibri, Light';white-space:pre;fill:none;fill-opacity:0;stroke:#000000;stroke-width:0.108267;stroke-linecap:round;stroke-linejoin:round"
       transform="matrix(3.3563689,0,0,3.3563689,-306.30656,-298.46927)">
      <path
         d="m 120.44249,127.57014 h -0.0987 l -0.33202,-0.75552 h -0.0165 v 1.02998 h 0.15933 q 0.0308,0 0.0442,0.0123 0.0134,0.0113 0.0134,0.0308 0,0.0185 -0.0134,0.0308 -0.0134,0.0123 -0.0442,0.0123 h -0.31866 q -0.0308,0 -0.0442,-0.0123 -0.0134,-0.0123 -0.0134,-0.0308 0,-0.0195 0.0134,-0.0308 0.0134,-0.0123 0.0442,-0.0123 h 0.073 v -1.02998 h -0.0545 q -0.0308,0 -0.0442,-0.0113 -0.0134,-0.0123 -0.0134,-0.0319 0,-0.0195 0.0134,-0.0308 0.0134,-0.0123 0.0442,-0.0123 h 0.21176 l 0.32688,0.74422 0.32174,-0.74422 h 0.21175 q 0.0319,0 0.0452,0.0123 0.0134,0.0113 0.0134,0.0308 0,0.0195 -0.0134,0.0319 -0.0134,0.0113 -0.0452,0.0113 h -0.0535 v 1.02998 h 0.072 q 0.0319,0 0.0452,0.0123 0.0134,0.0113 0.0134,0.0308 0,0.0185 -0.0134,0.0308 -0.0134,0.0123 -0.0452,0.0123 h -0.31763 q -0.0308,0 -0.0452,-0.0123 -0.0134,-0.0123 -0.0134,-0.0308 0,-0.0195 0.0134,-0.0308 0.0134,-0.0123 0.0452,-0.0123 h 0.15933 v -1.02998 h -0.0185 z"
         style="font-weight:normal;font-size:2.10519px;font-family:'Courier New';-inkscape-font-specification:'Courier New, Normal'"
         id="path4401" />
      <path
         d="m 121.70067,127.31522 0.41014,0.52938 h 0.0329 q 0.0308,0 0.0442,0.0123 0.0134,0.0113 0.0134,0.0308 0,0.0185 -0.0134,0.0308 -0.0134,0.0123 -0.0442,0.0123 h -0.27754 q -0.0308,0 -0.0442,-0.0123 -0.0134,-0.0123 -0.0134,-0.0308 0,-0.0195 0.0134,-0.0308 0.0134,-0.0123 0.0442,-0.0123 h 0.13774 l -0.35669,-0.45845 -0.35257,0.45845 h 0.13774 q 0.0308,0 0.0442,0.0123 0.0134,0.0113 0.0134,0.0308 0,0.0185 -0.0134,0.0308 -0.0134,0.0123 -0.0442,0.0123 h -0.27549 q -0.0308,0 -0.0442,-0.0123 -0.0134,-0.0123 -0.0134,-0.0308 0,-0.0144 0.008,-0.0257 0.008,-0.0113 0.0185,-0.0144 0.0103,-0.003 0.0627,-0.003 l 0.405,-0.52938 -0.3865,-0.5006 h -0.0319 q -0.0308,0 -0.0442,-0.0113 -0.0134,-0.0123 -0.0134,-0.0319 0,-0.0195 0.0134,-0.0308 0.0134,-0.0123 0.0442,-0.0123 h 0.23539 q 0.0319,0 0.0452,0.0123 0.0134,0.0113 0.0134,0.0308 0,0.0195 -0.0134,0.0319 -0.0134,0.0113 -0.0452,0.0113 h -0.0966 l 0.33304,0.4307 0.331,-0.4307 h -0.0966 q -0.0319,0 -0.0452,-0.0113 -0.0134,-0.0123 -0.0134,-0.0319 0,-0.0195 0.0134,-0.0308 0.0134,-0.0123 0.0452,-0.0123 h 0.23642 q 0.0308,0 0.0442,0.0123 0.0134,0.0113 0.0134,0.0308 0,0.0195 -0.0134,0.0319 -0.0134,0.0113 -0.0442,0.0113 h -0.0329 z"
         style="font-weight:normal;font-size:2.10519px;font-family:'Courier New';-inkscape-font-specification:'Courier New, Normal'"
         id="path4403" />
      <path
         d="m 122.95473,126.62343 v 1.22117 h 0.29605 q 0.0308,0 0.0442,0.0123 0.0134,0.0113 0.0134,0.0308 0,0.0185 -0.0134,0.0308 -0.0134,0.0123 -0.0442,0.0123 h -0.67843 q -0.0308,0 -0.0442,-0.0123 -0.0134,-0.0123 -0.0134,-0.0308 0,-0.0195 0.0134,-0.0308 0.0134,-0.0123 0.0442,-0.0123 h 0.29604 v -1.10193 l -0.28165,0.0884 q -0.0206,0.006 -0.0298,0.006 -0.0154,0 -0.0288,-0.0123 -0.0123,-0.0134 -0.0123,-0.0308 0,-0.0154 0.0103,-0.0288 0.008,-0.008 0.0339,-0.0175 z"
         style="font-weight:normal;font-size:2.10519px;font-family:'Courier New';-inkscape-font-specification:'Courier New, Normal'"
         id="path4405" />
      <path
         d="m 124.57166,127.17953 v 0.21381 q 0,0.27857 -0.1326,0.44098 -0.10382,0.12746 -0.26212,0.12746 -0.0761,0 -0.14391,-0.0308 -0.0668,-0.0298 -0.1141,-0.0843 -0.0298,-0.0339 -0.0658,-0.10896 -0.0349,-0.075 -0.0504,-0.13775 -0.0236,-0.0884 -0.0236,-0.20661 v -0.21381 q 0,-0.27959 0.1326,-0.442 0.10382,-0.12747 0.26212,-0.12747 0.0771,0 0.14391,0.0308 0.0668,0.0298 0.1141,0.0843 0.0308,0.035 0.0658,0.10999 0.035,0.075 0.0514,0.13671 0.0226,0.0884 0.0226,0.20764 z m -0.0863,0.0113 q 0,-0.12232 -0.0349,-0.22717 -0.0339,-0.10588 -0.0771,-0.16858 -0.0257,-0.036 -0.0668,-0.0617 -0.0586,-0.036 -0.13158,-0.036 -0.14494,0 -0.22717,0.14802 -0.0822,0.14802 -0.0822,0.34538 v 0.19017 q 0,0.12232 0.0339,0.2282 0.0349,0.10587 0.0791,0.16858 0.0247,0.0349 0.0658,0.0606 0.0586,0.037 0.13261,0.037 0.14391,0 0.22614,-0.14802 0.0822,-0.14905 0.0822,-0.34641 z"
         style="font-weight:normal;font-size:2.10519px;font-family:'Courier New';-inkscape-font-specification:'Courier New, Normal'"
         id="path4407" />
      <path
         d="m 125.59959,127.57014 h -0.57256 v -0.0997 l 0.48004,-0.82954 h 0.17989 v 0.8429 h 0.072 q 0.0319,0 0.0452,0.0123 0.0134,0.0113 0.0134,0.0308 0,0.0185 -0.0134,0.0308 -0.0134,0.0123 -0.0452,0.0123 h -0.072 v 0.27446 h 0.072 q 0.0319,0 0.0452,0.0123 0.0134,0.0113 0.0134,0.0308 0,0.0185 -0.0134,0.0308 -0.0134,0.0123 -0.0452,0.0123 h -0.32071 q -0.0319,0 -0.0452,-0.0123 -0.0134,-0.0123 -0.0134,-0.0308 0,-0.0195 0.0134,-0.0308 0.0134,-0.0123 0.0452,-0.0123 h 0.16139 z m 0,-0.0863 v -0.75553 h -0.0452 l -0.43687,0.75553 z"
         style="font-weight:normal;font-size:2.10519px;font-family:'Courier New';-inkscape-font-specification:'Courier New, Normal'"
         id="path4409" />
      <path
         d="m 127.1425,127.2741 v 0.12335 h -0.88093 v -0.12335 z"
         style="font-weight:normal;font-size:2.10519px;font-family:'Courier New';-inkscape-font-specification:'Courier New, Normal'"
         id="path4411" />
      <path
         d="m 128.2578,127.34914 h -0.57256 v 0.49546 h 0.11616 q 0.0308,0 0.0442,0.0123 0.0134,0.0113 0.0134,0.0308 0,0.0185 -0.0134,0.0308 -0.0134,0.0123 -0.0442,0.0123 h -0.30015 q -0.0308,0 -0.0442,-0.0123 -0.0134,-0.0123 -0.0134,-0.0308 0,-0.0195 0.0134,-0.0308 0.0134,-0.0123 0.0442,-0.0123 h 0.0977 v -1.02998 h -0.0534 q -0.0319,0 -0.0452,-0.0113 -0.0134,-0.0123 -0.0134,-0.0319 0,-0.0195 0.0134,-0.0308 0.0134,-0.0123 0.0452,-0.0123 h 0.25595 q 0.0308,0 0.0442,0.0123 0.0134,0.0113 0.0134,0.0308 0,0.0195 -0.0134,0.0319 -0.0134,0.0113 -0.0442,0.0113 h -0.11616 v 0.44818 h 0.57256 v -0.44818 h -0.11513 q -0.0308,0 -0.0442,-0.0113 -0.0134,-0.0123 -0.0134,-0.0319 0,-0.0195 0.0123,-0.0308 0.0134,-0.0123 0.0452,-0.0123 h 0.25595 q 0.0319,0 0.0452,0.0123 0.0134,0.0113 0.0134,0.0308 0,0.0195 -0.0134,0.0319 -0.0134,0.0113 -0.0452,0.0113 h -0.0534 v 1.02998 h 0.0977 q 0.0308,0 0.0442,0.0123 0.0134,0.0113 0.0134,0.0308 0,0.0185 -0.0134,0.0308 -0.0134,0.0123 -0.0442,0.0123 h -0.30016 q -0.0308,0 -0.0442,-0.0123 -0.0134,-0.0123 -0.0134,-0.0308 0,-0.0195 0.0123,-0.0308 0.0134,-0.0123 0.0452,-0.0123 h 0.11513 z"
         style="font-weight:normal;font-size:2.10519px;font-family:'Courier New';-inkscape-font-specification:'Courier New, Normal'"
         id="path4413" />
      <path
         d="m 129.53756,126.81462 v -0.0288 q 0,-0.0308 0.0113,-0.0442 0.0123,-0.0134 0.0319,-0.0134 0.0195,0 0.0308,0.0134 0.0123,0.0134 0.0123,0.0442 v 0.21997 q 0,0.0308 -0.0123,0.0442 -0.0113,0.0134 -0.0308,0.0134 -0.0185,0 -0.0308,-0.0123 -0.0113,-0.0123 -0.0123,-0.0401 -0.005,-0.0863 -0.0894,-0.15521 -0.0833,-0.0689 -0.21895,-0.0689 -0.14288,0 -0.22717,0.074 -0.0843,0.073 -0.0843,0.17269 0,0.0514 0.0236,0.0935 0.0236,0.0421 0.0627,0.0689 0.0391,0.0257 0.0884,0.0421 0.0493,0.0154 0.15419,0.0329 0.17578,0.0288 0.24259,0.0586 0.0894,0.0401 0.13466,0.11102 0.0463,0.0709 0.0463,0.16755 0,0.14802 -0.11821,0.25287 -0.11822,0.10382 -0.31866,0.10382 -0.22512,0 -0.35977,-0.14083 v 0.0493 q 0,0.0308 -0.0123,0.0442 -0.0113,0.0134 -0.0308,0.0134 -0.0185,0 -0.0308,-0.0134 -0.0123,-0.0134 -0.0123,-0.0442 v -0.23848 q 0,-0.0319 0.0113,-0.0452 0.0123,-0.0134 0.0319,-0.0134 0.0185,0 0.0298,0.0123 0.0123,0.0123 0.0134,0.0401 0.005,0.0946 0.10073,0.17269 0.0966,0.0771 0.25904,0.0771 0.16241,0 0.25595,-0.0812 0.0946,-0.0812 0.0946,-0.19223 0,-0.0678 -0.036,-0.12026 -0.036,-0.0535 -0.1069,-0.0843 -0.0493,-0.0216 -0.20559,-0.0483 -0.21483,-0.036 -0.3094,-0.10998 -0.0946,-0.074 -0.0946,-0.21073 0,-0.13568 0.10793,-0.23334 0.10896,-0.0977 0.28679,-0.0977 0.18092,0 0.31146,0.1141 z"
         style="font-weight:normal;font-size:2.10519px;font-family:'Courier New';-inkscape-font-specification:'Courier New, Normal'"
         id="path4415" />
    </g>
    <text
       xml:space="preserve"
       style="font-style:normal;font-variant:normal;font-weight:300;font-stretch:normal;font-size:1.35334px;font-family:Calibri;-inkscape-font-specification:'Calibri, Light';font-variant-ligatures:normal;font-variant-caps:normal;font-variant-numeric:normal;font-variant-east-asian:normal;white-space:pre;fill:none;fill-opacity:0;stroke:#000000;stroke-width:0.108267;stroke-linecap:round;stroke-linejoin:round"
       x="119.75378"
       y="127.93095"
       id="text429-7-8"
       transform="translate(0,1.4630719)"><tspan
         id="tspan427-6-1"
         style="font-style:normal;font-variant:normal;font-weight:normal;font-stretch:normal;font-size:0.705556px;font-family:'Courier New';-inkscape-font-specification:'Courier New, Normal';font-variant-ligatures:normal;font-variant-caps:normal;font-variant-numeric:normal;font-variant-east-asian:normal;stroke-width:0.108267"
         x="119.75378"
         y="127.93095" /></text>
    <text
       xml:space="preserve"
       style="font-weight:300;font-size:50.8px;font-family:Calibri;-inkscape-font-specification:'Calibri, Light';fill:#000000;stroke:#000000;stroke-width:0.136;stroke-linecap:round;stroke-linejoin:round"
       x="123.46606"
       y="129.17947"
       id="text3045"><tspan
         sodipodi:role="line"
         id="tspan3043"
         style="stroke-width:0.136" /></text>
    <text
       xml:space="preserve"
       transform="scale(0.26458333)"
       id="text3074"
       style="font-style:normal;font-variant:normal;font-weight:normal;font-stretch:normal;font-size:2.66667px;font-family:'Courier New';-inkscape-font-specification:'Courier New, Normal';font-variant-ligatures:normal;font-variant-caps:normal;font-variant-numeric:normal;font-variant-east-asian:normal;white-space:pre;shape-inside:url(#rect3076);display:inline;fill:#000000;stroke:#000000;stroke-width:0.514016;stroke-linecap:round;stroke-linejoin:round" />
    <text
       xml:space="preserve"
       style="font-style:normal;font-variant:normal;font-weight:normal;font-stretch:normal;font-size:0.705556px;font-family:'Microsoft Sans Serif';-inkscape-font-specification:'Microsoft Sans Serif, Normal';font-variant-ligatures:normal;font-variant-caps:normal;font-variant-numeric:normal;font-variant-east-asian:normal;fill:#000000;stroke:#000000;stroke-width:0.136;stroke-linecap:round;stroke-linejoin:round"
       x="119.87179"
       y="128.96796"
       id="text3082"><tspan
         sodipodi:role="line"
         id="tspan3080"
         style="font-style:normal;font-variant:normal;font-weight:normal;font-stretch:normal;font-size:0.705556px;font-family:'Microsoft Sans Serif';-inkscape-font-specification:'Microsoft Sans Serif, Normal';font-variant-ligatures:normal;font-variant-caps:normal;font-variant-numeric:normal;font-variant-east-asian:normal;stroke-width:0.136"
         x="119.87179"
         y="128.96796" /></text>
    <text
       xml:space="preserve"
       style="font-style:normal;font-variant:normal;font-weight:normal;font-stretch:normal;font-size:0.705556px;font-family:Arial;-inkscape-font-specification:'Arial, Normal';font-variant-ligatures:normal;font-variant-caps:normal;font-variant-numeric:normal;font-variant-east-asian:normal;fill:#000000;stroke:#000000;stroke-width:0.136;stroke-linecap:round;stroke-linejoin:round"
       x="119.8886"
       y="128.38974"
       id="text3086"><tspan
         sodipodi:role="line"
         id="tspan3088" /></text>
    <text
       xml:space="preserve"
       style="font-style:normal;font-variant:normal;font-weight:normal;font-stretch:normal;font-size:0.705556px;font-family:Arial;-inkscape-font-specification:'Arial, Normal';font-variant-ligatures:normal;font-variant-caps:normal;font-variant-numeric:normal;font-variant-east-asian:normal;fill:#000000;stroke:#000000;stroke-width:0.136;stroke-linecap:round;stroke-linejoin:round;fill-opacity:0"
       x="119.89483"
       y="128.75122"
       id="text3335"><tspan
         sodipodi:role="line"
         id="tspan3333"
         style="stroke-width:0.136;fill:#000000;fill-opacity:0"
         x="119.89483"
         y="128.75122" /></text>
    <text
       xml:space="preserve"
       style="font-style:normal;font-variant:normal;font-weight:normal;font-stretch:normal;font-size:0.705556px;font-family:Arial;-inkscape-font-specification:'Arial, Normal';font-variant-ligatures:normal;font-variant-caps:normal;font-variant-numeric:normal;font-variant-east-asian:normal;fill:#000000;fill-opacity:0;stroke:#000000;stroke-width:0.136;stroke-linecap:round;stroke-linejoin:round"
       x="119.92599"
       y="129.96657"
       id="text3391"><tspan
         sodipodi:role="line"
         id="tspan3389"
         style="stroke-width:0.136"
         x="119.92599"
         y="129.96657" /></text>
    <g
       aria-label="RGB Underglow &amp; Matrix"
       id="text3395"
       style="font-size:0.705556px;font-family:'Courier New';-inkscape-font-specification:'Courier New, Normal';fill-opacity:0;stroke:#000000;stroke-width:0.0409999;stroke-linecap:round;stroke-linejoin:round">
      <path
         d="m 95.825921,132.59754 v 0.50645 h 0.179234 q 0.03584,0 0.05097,0.0136 0.01363,0.0136 0.01363,0.0346 0,0.0202 -0.01363,0.0346 -0.01363,0.0136 -0.05097,0.0136 h -0.407029 q -0.03462,0 -0.04974,-0.0136 -0.01363,-0.0136 -0.01363,-0.0346 0,-0.0234 0.01363,-0.0346 0.01363,-0.0136 0.04974,-0.0136 h 0.130565 v -1.15863 h -0.130565 q -0.03462,0 -0.04974,-0.0136 -0.01363,-0.0136 -0.01363,-0.0358 0,-0.0234 0.01363,-0.0346 0.01363,-0.0136 0.04974,-0.0136 h 0.587394 q 0.181578,0 0.305438,0.11543 0.124841,0.11448 0.124841,0.25911 0,0.10397 -0.07755,0.19668 -0.07619,0.0914 -0.256754,0.15272 0.10399,0.0718 0.178211,0.16176 0.07414,0.0903 0.236966,0.37002 h 0.07414 q 0.03462,0 0.04974,0.0136 0.01363,0.0136 0.01363,0.0346 0,0.0202 -0.01363,0.0346 -0.01363,0.0136 -0.04974,0.0136 H 96.6412 q -0.180229,-0.32254 -0.279911,-0.43246 -0.0984,-0.10971 -0.226554,-0.17118 z m 0,-0.0971 h 0.264824 q 0.127158,0 0.230247,-0.0464 0.10399,-0.0464 0.150354,-0.10876 0.04729,-0.0624 0.04729,-0.12716 0,-0.0971 -0.0984,-0.18493 -0.09704,-0.0879 -0.236954,-0.0879 h -0.357296 z"
         id="path4418"
         style="stroke-width:0.137611" />
      <path
         d="m 98.091107,132.69928 v 0.41628 q -0.111076,0.0615 -0.22185,0.0927 -0.109718,0.0303 -0.219856,0.0303 -0.156062,0 -0.27522,-0.0464 -0.117754,-0.0464 -0.200046,-0.12962 -0.08218,-0.0833 -0.128247,-0.18627 -0.04497,-0.103 -0.04497,-0.26147 v -0.17822 q 0,-0.15943 0.07851,-0.30979 0.07986,-0.15137 0.21749,-0.23126 0.137612,-0.0798 0.299387,-0.0798 0.234609,0 0.396612,0.12825 0,-0.0567 0.0032,-0.0682 0.0032,-0.01 0.01672,-0.0202 0.01359,-0.01 0.03031,-0.01 0.02017,0 0.03462,0.0136 0.01359,0.0136 0.01359,0.0497 v 0.2195 q 0,0.036 -0.01359,0.051 -0.01359,0.0136 -0.03462,0.0136 -0.02017,0 -0.03354,-0.0136 -0.01359,-0.0136 -0.01359,-0.0472 -0.0065,-0.0984 -0.128246,-0.16076 -0.120212,-0.0625 -0.262463,-0.0625 -0.134245,0 -0.242664,0.059 -0.107399,0.0578 -0.201381,0.22185 -0.06242,0.10742 -0.06242,0.24401 v 0.17688 q 0,0.24165 0.148024,0.3839 0.14801,0.14231 0.40816,0.14231 0.0879,0 0.163125,-0.0202 0.07517,-0.0202 0.175863,-0.0647 v -0.35962 h -0.334286 q -0.03462,0 -0.04975,-0.0136 -0.01363,-0.0136 -0.01363,-0.0358 0,-0.0234 0.01363,-0.036 0.01363,-0.0136 0.04975,-0.0136 l 0.467148,0.001 q 0.03462,0 0.04961,0.0136 0.01359,0.0136 0.01359,0.0346 0,0.0136 -0.0097,0.0268 -0.0097,0.0136 -0.02017,0.0167 -0.0097,0.003 -0.06946,0.003 z"
         id="path4420"
         style="stroke-width:0.137611" />
      <path
         d="m 98.569817,133.10399 v -1.15863 h -0.130565 q -0.03462,0 -0.04961,-0.0136 -0.01359,-0.0136 -0.01359,-0.0358 0,-0.0234 0.01359,-0.0346 0.01359,-0.0136 0.04961,-0.0136 h 0.610526 q 0.181579,0 0.295028,0.10537 0.114484,0.10407 0.114484,0.24501 0,0.17823 -0.190649,0.28799 0.151381,0.0544 0.221851,0.14465 0.07043,0.0903 0.07043,0.19903 0,0.0971 -0.04638,0.17822 -0.04638,0.0798 -0.1423,0.13629 -0.09458,0.0567 -0.207096,0.0567 h -0.726143 q -0.03462,0 -0.04972,-0.0136 -0.01359,-0.0136 -0.01359,-0.0346 0,-0.0234 0.01359,-0.0346 0.01359,-0.0136 0.04972,-0.0136 z m 0.09707,-0.65447 h 0.343421 q 0.109707,0 0.201046,-0.0407 0.07043,-0.0335 0.109718,-0.0936 0.03926,-0.0615 0.03926,-0.12484 0,-0.0914 -0.08563,-0.16782 -0.08563,-0.0775 -0.22321,-0.0775 h -0.38503 z m 0,0.65447 h 0.491448 q 0.09361,0 0.163104,-0.0415 0.06946,-0.0416 0.10537,-0.103 0.03602,-0.0615 0.03602,-0.12716 0,-0.0741 -0.05209,-0.14332 -0.05101,-0.0695 -0.142311,-0.10537 -0.09135,-0.036 -0.252049,-0.036 h -0.349201 z"
         id="path4422"
         style="stroke-width:0.137611" />
      <path
         d="m 102.29657,131.94536 v 0.81175 q 0,0.20473 -0.13629,0.34342 -0.13629,0.13862 -0.32958,0.13862 -0.12962,0 -0.23025,-0.0567 -0.10074,-0.0567 -0.17119,-0.17118 -0.0704,-0.11585 -0.0704,-0.25442 v -0.81173 h -0.0822 q -0.0346,0 -0.0497,-0.0136 -0.0136,-0.0136 -0.0136,-0.036 0,-0.0234 0.0167,-0.0369 0.0136,-0.01 0.0486,-0.01 h 0.35843 q 0.0346,0 0.0497,0.0136 0.0136,0.0136 0.0136,0.0346 0,0.0234 -0.0136,0.0358 -0.0136,0.0136 -0.0497,0.0136 h -0.17924 v 0.81175 q 0,0.16076 0.10971,0.27287 0.10972,0.11203 0.26012,0.11203 0.096,0 0.17454,-0.044 0.0798,-0.044 0.13862,-0.1352 0.0601,-0.0914 0.0601,-0.20574 v -0.81174 h -0.17924 q -0.0346,0 -0.0496,-0.0136 -0.0136,-0.0136 -0.0136,-0.0358 0,-0.0234 0.0136,-0.0346 0.0136,-0.0136 0.0496,-0.0136 h 0.35844 q 0.0346,0 0.0497,0.0136 0.0136,0.0136 0.0136,0.0346 0,0.0234 -0.0136,0.0358 -0.0136,0.0136 -0.0497,0.0136 z"
         id="path4424"
         style="stroke-width:0.137611" />
      <path
         d="m 102.93371,132.19975 v 0.147 q 0.1017,-0.103 0.18393,-0.1423 0.0822,-0.0393 0.18492,-0.0393 0.11107,0 0.20239,0.0472 0.0647,0.0346 0.11681,0.11586 0.0533,0.0798 0.0533,0.16412 v 0.61165 h 0.0822 q 0.0346,0 0.0497,0.0136 0.0136,0.0136 0.0136,0.0346 0,0.0202 -0.0136,0.0346 -0.0136,0.0136 -0.0497,0.0136 h -0.26013 q -0.036,0 -0.051,-0.0136 -0.0136,-0.0136 -0.0136,-0.0346 0,-0.0234 0.0136,-0.0346 0.0136,-0.0136 0.051,-0.0136 h 0.0808 v -0.59548 q 0,-0.103 -0.0753,-0.17352 -0.0752,-0.0718 -0.20138,-0.0718 -0.096,0 -0.16648,0.0393 -0.0704,0.0383 -0.20105,0.19199 v 0.60937 h 0.10971 q 0.0346,0 0.0497,0.0136 0.0136,0.0136 0.0136,0.0346 0,0.0202 -0.0136,0.0346 -0.0136,0.0136 -0.0497,0.0136 h -0.31682 q -0.0346,0 -0.0497,-0.0136 -0.0136,-0.0136 -0.0136,-0.0346 0,-0.0234 0.0136,-0.0346 0.0136,-0.0136 0.0497,-0.0136 h 0.1097 v -0.80592 h -0.0822 q -0.0346,0 -0.0497,-0.0136 -0.0136,-0.0136 -0.0136,-0.036 0,-0.0202 0.0136,-0.0346 0.0136,-0.0136 0.0497,-0.0136 z"
         id="path4426"
         style="stroke-width:0.137611" />
      <path
         d="m 105.14454,131.74996 v 1.35403 h 0.12961 q 0.036,0 0.051,0.0136 0.0136,0.0136 0.0136,0.0346 0,0.0202 -0.0136,0.0346 -0.0136,0.0136 -0.051,0.0136 h -0.22789 v -0.19299 q -0.16883,0.23125 -0.42898,0.23125 -0.13194,0 -0.25306,-0.0695 -0.12021,-0.0704 -0.19099,-0.20005 -0.0696,-0.1296 -0.0696,-0.26717 0,-0.13862 0.0696,-0.26717 0.0704,-0.1296 0.19099,-0.20003 0.12143,-0.0704 0.25441,-0.0704 0.25441,0 0.42782,0.23126 v -0.54808 h -0.12961 q -0.0358,0 -0.051,-0.0136 -0.0136,-0.0136 -0.0136,-0.0358 0,-0.0202 0.0136,-0.0346 0.0136,-0.0136 0.051,-0.0136 z m -0.0984,0.95281 q 0,-0.18493 -0.12483,-0.31214 -0.12485,-0.12717 -0.29704,-0.12717 -0.17352,0 -0.29838,0.12717 -0.12484,0.12715 -0.12484,0.31214 0,0.18392 0.12484,0.31213 0.12485,0.12717 0.29838,0.12717 0.17218,0 0.29704,-0.12717 0.12483,-0.12824 0.12483,-0.31213 z"
         id="path4428"
         style="stroke-width:0.137611" />
      <path
         d="m 106.61537,132.72357 h -0.9898 q 0.0269,0.18863 0.15742,0.30409 0.13288,0.11449 0.32825,0.11449 0.10876,0 0.2279,-0.036 0.11912,-0.036 0.19434,-0.0946 0.0234,-0.0167 0.0383,-0.0167 0.0202,0 0.0335,0.0136 0.0136,0.0136 0.0136,0.0335 0,0.0202 -0.0202,0.0383 -0.0553,0.0578 -0.19769,0.10876 -0.14097,0.0496 -0.29032,0.0496 -0.24971,0 -0.41743,-0.16312 -0.16648,-0.16412 -0.16648,-0.39658 0,-0.2118 0.15606,-0.3631 0.15742,-0.15137 0.38854,-0.15137 0.23831,0 0.392,0.15607 0.15372,0.15507 0.15138,0.4024 z m -0.0984,-0.0984 q -0.0303,-0.16076 -0.15272,-0.26145 -0.12252,-0.10073 -0.29268,-0.10073 -0.16983,0 -0.29266,0.0993 -0.12253,0.0993 -0.15272,0.26248 z"
         id="path4430"
         style="stroke-width:0.137611" />
      <path
         d="m 107.39472,132.19975 v 0.24501 q 0.18963,-0.17117 0.28328,-0.21984 0.0947,-0.0497 0.17452,-0.0497 0.0865,0 0.16078,0.059 0.0752,0.0578 0.0752,0.0879 0,0.0234 -0.0136,0.0369 -0.0136,0.0136 -0.0358,0.0136 -0.01,0 -0.0202,-0.003 -0.006,-0.003 -0.0303,-0.0269 -0.0406,-0.0403 -0.0704,-0.0553 -0.0302,-0.0136 -0.059,-0.0136 -0.0634,0 -0.15372,0.051 -0.089,0.051 -0.3098,0.24869 v 0.53189 h 0.43016 q 0.036,0 0.0507,0.0136 0.0136,0.0136 0.0136,0.0346 0,0.0202 -0.0136,0.0346 -0.0136,0.0136 -0.0507,0.0136 h -0.76204 q -0.0346,0 -0.0497,-0.0136 -0.0136,-0.0136 -0.0136,-0.0346 0,-0.0202 0.0136,-0.0335 0.0136,-0.0136 0.051,-0.0136 h 0.23461 v -0.80938 h -0.17924 q -0.0346,0 -0.0497,-0.0136 -0.0136,-0.0136 -0.0136,-0.036 0,-0.0202 0.0136,-0.0346 0.0136,-0.0136 0.051,-0.0136 z"
         id="path4432"
         style="stroke-width:0.137611" />
      <path
         d="m 109.25868,132.37783 v -0.17822 h 0.2279 q 0.0346,0 0.0496,0.0136 0.0136,0.0136 0.0136,0.036 0,0.0202 -0.0136,0.0346 -0.0136,0.0136 -0.0496,0.0136 h -0.13056 v 0.97013 q 0,0.0971 -0.0415,0.17352 -0.0269,0.051 -0.0926,0.10537 -0.0647,0.0544 -0.11775,0.0775 -0.0531,0.0234 -0.14232,0.0234 h -0.27522 q -0.0346,0 -0.0496,-0.0136 -0.0136,-0.0136 -0.0136,-0.0346 0,-0.0234 0.0136,-0.036 0.0136,-0.0136 0.0496,-0.0136 l 0.27858,0.001 q 0.0856,0 0.15372,-0.044 0.0695,-0.044 0.11449,-0.12824 0.0268,-0.0487 0.0268,-0.12389 v -0.29133 q -0.15608,0.21379 -0.40239,0.21379 -0.20006,0 -0.34574,-0.14802 -0.14467,-0.14902 -0.14467,-0.35846 0,-0.20943 0.14467,-0.35728 0.14566,-0.14803 0.34574,-0.14803 0.24635,0 0.40239,0.21281 z m 0,0.29267 q 0,-0.17116 -0.11775,-0.28897 -0.1168,-0.11775 -0.27993,-0.11775 -0.16311,0 -0.27991,0.11911 -0.1168,0.11776 -0.1168,0.28799 0,0.17117 0.1168,0.29031 0.1168,0.11776 0.27991,0.11776 0.16313,0 0.27993,-0.11776 0.11775,-0.11911 0.11775,-0.29031 z"
         id="path4434"
         style="stroke-width:0.137611" />
      <path
         d="m 110.40227,131.74996 v 1.35403 h 0.38158 q 0.0358,0 0.051,0.0136 0.0136,0.0136 0.0136,0.0346 0,0.0202 -0.0136,0.0346 -0.0136,0.0136 -0.051,0.0136 h -0.86031 q -0.0346,0 -0.0496,-0.0136 -0.0136,-0.0136 -0.0136,-0.0346 0,-0.0234 0.0136,-0.0346 0.0136,-0.0136 0.0496,-0.0136 h 0.38159 v -1.25576 h -0.27992 q -0.0346,0 -0.051,-0.0136 -0.0136,-0.0136 -0.0136,-0.0358 0,-0.0202 0.0136,-0.0346 0.0136,-0.0136 0.051,-0.0136 z"
         id="path4436"
         style="stroke-width:0.137611" />
      <path
         d="m 112.3171,132.70277 q 0,0.22185 -0.15977,0.37926 -0.1584,0.15742 -0.38271,0.15742 -0.22656,0 -0.38504,-0.15742 -0.15842,-0.15842 -0.15842,-0.37926 0,-0.22186 0.15842,-0.37927 0.15842,-0.15842 0.38504,-0.15842 0.2242,0 0.38271,0.15741 0.15977,0.15742 0.15977,0.38044 z m -0.0984,0 q 0,-0.18259 -0.13056,-0.31114 -0.12962,-0.12825 -0.3145,-0.12825 -0.18492,0 -0.31548,0.12961 -0.12962,0.12825 -0.12962,0.3098 0,0.18024 0.12962,0.30978 0.13056,0.12962 0.31548,0.12962 0.18494,0 0.3145,-0.12825 0.13056,-0.12961 0.13056,-0.31114 z"
         id="path4438"
         style="stroke-width:0.137611" />
      <path
         d="m 113.53007,133.20112 -0.1202,0.001 -0.21381,-0.6244 -0.21278,0.6244 -0.12021,-0.001 -0.20105,-0.90306 h -0.0472 q -0.0346,0 -0.0496,-0.0136 -0.0136,-0.0136 -0.0136,-0.0358 0,-0.0202 0.0136,-0.0346 0.0136,-0.0136 0.0496,-0.0136 h 0.26716 q 0.0346,0 0.0497,0.0136 0.0136,0.0136 0.0136,0.036 0,0.0202 -0.0136,0.0346 -0.0136,0.0136 -0.0497,0.0136 h -0.12387 l 0.17217,0.77009 0.20709,-0.61515 h 0.11584 l 0.2128,0.61515 0.16548,-0.77009 h -0.12253 q -0.0346,0 -0.051,-0.0136 -0.0136,-0.0136 -0.0136,-0.0358 0,-0.0202 0.0136,-0.0346 0.0136,-0.0136 0.051,-0.0136 h 0.26582 q 0.036,0 0.051,0.0136 0.0136,0.0136 0.0136,0.036 0,0.0202 -0.0136,0.0346 -0.0136,0.0136 -0.051,0.0136 h -0.0464 z"
         id="path4440"
         style="stroke-width:0.137611" />
      <path
         d="m 116.31213,133.20112 -0.0741,-0.11449 q -0.10397,0.15272 -0.26819,0.15272 -0.13862,0 -0.24399,-0.10971 -0.10537,-0.10972 -0.10537,-0.26817 0,-0.12252 0.0704,-0.2175 0.0718,-0.0946 0.19668,-0.13192 -0.0856,-0.13762 -0.10299,-0.18025 -0.0167,-0.044 -0.0167,-0.0903 0,-0.11448 0.0865,-0.20004 0.0865,-0.0866 0.20807,-0.0866 0.0393,0 0.0785,0.01 0.0393,0.01 0.0785,0.036 0.0496,-0.0268 0.0615,-0.0268 0.0202,0 0.0335,0.0136 0.0136,0.0136 0.0136,0.0346 0,0.0136 -0.006,0.0268 -0.006,0.01 -0.0335,0.0234 l -0.0752,0.0407 q -0.036,-0.0335 -0.0741,-0.0472 -0.0369,-0.0167 -0.0761,-0.0167 -0.0798,0 -0.13997,0.059 -0.059,0.0592 -0.059,0.13193 0,0.0752 0.10396,0.24064 l 0.26819,0.42669 q 0.0704,-0.13287 0.11107,-0.30744 h 0.0947 q 0.0346,0 0.0497,0.0136 0.0136,0.0136 0.0136,0.0346 0,0.0136 -0.01,0.0268 -0.006,0.0136 -0.0202,0.0167 -0.01,0.003 -0.0567,0.003 -0.0553,0.19535 -0.12716,0.30308 l 0.0658,0.0993 h 0.0822 q 0.0346,0 0.0496,0.0136 0.0136,0.0136 0.0136,0.0346 0,0.0202 -0.0136,0.0346 -0.0136,0.0136 -0.0496,0.0136 z m -0.38277,-0.60358 q -0.0971,0.0234 -0.15505,0.0947 -0.0567,0.0704 -0.0567,0.16884 0,0.1168 0.0761,0.19902 0.0775,0.0822 0.17352,0.0822 0.12962,0 0.2138,-0.14567 z"
         id="path4442"
         style="stroke-width:0.137611" />
      <path
         d="m 118.94385,132.79526 h -0.11108 l -0.3735,-0.8499 h -0.0202 v 1.15863 h 0.17924 q 0.0346,0 0.0497,0.0136 0.0136,0.0136 0.0136,0.0346 0,0.0202 -0.0136,0.0346 -0.0136,0.0136 -0.0497,0.0136 h -0.35845 q -0.0346,0 -0.0497,-0.0136 -0.0136,-0.0136 -0.0136,-0.0346 0,-0.0234 0.0136,-0.0346 0.0136,-0.0136 0.0497,-0.0136 h 0.0822 v -1.15863 h -0.0615 q -0.0346,0 -0.0497,-0.0136 -0.0136,-0.0136 -0.0136,-0.0358 0,-0.0234 0.0136,-0.0346 0.0136,-0.0136 0.0497,-0.0136 h 0.23831 l 0.36772,0.83718 0.36192,-0.83718 h 0.2383 q 0.0358,0 0.051,0.0136 0.0136,0.0136 0.0136,0.0346 0,0.0234 -0.0136,0.0358 -0.0136,0.0136 -0.051,0.0136 h -0.0601 v 1.15863 h 0.081 q 0.0358,0 0.051,0.0136 0.0136,0.0136 0.0136,0.0346 0,0.0202 -0.0136,0.0346 -0.0136,0.0136 -0.051,0.0136 h -0.35732 q -0.0346,0 -0.051,-0.0136 -0.0136,-0.0136 -0.0136,-0.0346 0,-0.0234 0.0136,-0.0346 0.0136,-0.0136 0.051,-0.0136 h 0.17922 v -1.15863 h -0.0202 z"
         id="path4444"
         style="stroke-width:0.137611" />
      <path
         d="m 120.58002,133.20112 v -0.13997 q -0.21145,0.17822 -0.4521,0.17822 -0.17454,0 -0.27288,-0.0879 -0.0984,-0.089 -0.0984,-0.21749 0,-0.14096 0.12962,-0.24635 0.1296,-0.10537 0.37808,-0.10537 0.0672,0 0.14568,0.01 0.0785,0.006 0.16984,0.0269 v -0.15741 q 0,-0.0798 -0.0739,-0.13862 -0.0739,-0.059 -0.22186,-0.059 -0.11339,0 -0.31784,0.0658 -0.037,0.01 -0.0473,0.01 -0.0202,0 -0.0336,-0.0136 -0.0136,-0.0136 -0.0136,-0.0346 0,-0.0202 0.01,-0.0303 0.0167,-0.0168 0.13057,-0.0472 0.18024,-0.0486 0.27287,-0.0486 0.18393,0 0.28664,0.0914 0.103,0.0903 0.103,0.20474 v 0.64291 h 0.12961 q 0.036,0 0.051,0.0136 0.0136,0.0136 0.0136,0.0346 0,0.0202 -0.0136,0.0346 -0.0136,0.0136 -0.051,0.0136 z m 0,-0.48335 q -0.0682,-0.0202 -0.14466,-0.0303 -0.0761,-0.01 -0.16076,-0.01 -0.21146,0 -0.33062,0.0914 -0.0902,0.0682 -0.0902,0.16311 0,0.0879 0.0682,0.14802 0.0695,0.0601 0.20105,0.0601 0.1258,0 0.2336,-0.0496 0.10875,-0.051 0.2232,-0.16078 z"
         id="path4446"
         style="stroke-width:0.137611" />
      <path
         d="m 121.52242,132.19975 h 0.52725 q 0.0346,0 0.0497,0.0136 0.0136,0.0136 0.0136,0.036 0,0.0202 -0.0136,0.0346 -0.0136,0.0136 -0.0497,0.0136 h -0.52725 v 0.64637 q 0,0.0842 0.0672,0.14096 0.0682,0.0567 0.19904,0.0567 0.0984,0 0.21278,-0.0303 0.11448,-0.0303 0.1779,-0.0672 0.0234,-0.0136 0.0383,-0.0136 0.0202,0 0.0335,0.0136 0.0136,0.0136 0.0136,0.0335 0,0.0168 -0.0136,0.0335 -0.037,0.0383 -0.18024,0.0833 -0.14232,0.044 -0.27287,0.044 -0.16984,0 -0.27053,-0.0798 -0.10074,-0.0798 -0.10074,-0.21515 v -0.64637 h -0.17921 q -0.0346,0 -0.0497,-0.0136 -0.0136,-0.0136 -0.0136,-0.036 0,-0.0202 0.0136,-0.0346 0.0136,-0.0136 0.0497,-0.0136 h 0.17921 v -0.28663 q 0,-0.0346 0.0136,-0.0496 0.0136,-0.0136 0.0346,-0.0136 0.0234,0 0.036,0.0136 0.0136,0.0136 0.0136,0.0496 z"
         id="path4448"
         style="stroke-width:0.137611" />
      <path
         d="m 123.02678,132.19975 v 0.24501 q 0.18963,-0.17117 0.28328,-0.21984 0.095,-0.0497 0.17453,-0.0497 0.0865,0 0.16077,0.059 0.0752,0.0578 0.0752,0.0879 0,0.0234 -0.0136,0.0369 -0.0136,0.0136 -0.0358,0.0136 -0.01,0 -0.0202,-0.003 -0.006,-0.003 -0.0302,-0.0269 -0.0407,-0.0403 -0.0704,-0.0553 -0.0302,-0.0136 -0.0591,-0.0136 -0.0634,0 -0.15373,0.051 -0.089,0.051 -0.30978,0.24869 v 0.53189 h 0.43011 q 0.036,0 0.051,0.0136 0.0136,0.0136 0.0136,0.0346 0,0.0202 -0.0136,0.0346 -0.0136,0.0136 -0.051,0.0136 h -0.76199 q -0.0346,0 -0.0497,-0.0136 -0.0136,-0.0136 -0.0136,-0.0346 0,-0.0202 0.0136,-0.0335 0.0136,-0.0136 0.051,-0.0136 h 0.23461 v -0.80938 h -0.17923 q -0.0346,0 -0.0497,-0.0136 -0.0136,-0.0136 -0.0136,-0.036 0,-0.0202 0.0136,-0.0346 0.0136,-0.0136 0.051,-0.0136 z"
         id="path4450"
         style="stroke-width:0.137611" />
      <path
         d="m 124.61205,131.70139 v 0.25106 h -0.14331 v -0.25106 z m 0.003,0.49836 v 0.90424 h 0.38159 q 0.036,0 0.051,0.0136 0.0136,0.0136 0.0136,0.0346 0,0.0202 -0.0136,0.0346 -0.0136,0.0136 -0.051,0.0136 h -0.86027 q -0.0346,0 -0.0497,-0.0136 -0.0136,-0.0136 -0.0136,-0.0346 0,-0.0234 0.0136,-0.0346 0.0136,-0.0136 0.0497,-0.0136 h 0.38154 v -0.80593 h -0.28328 q -0.0346,0 -0.051,-0.0136 -0.0136,-0.0136 -0.0136,-0.0346 0,-0.0234 0.0136,-0.036 0.0136,-0.0136 0.051,-0.0136 z"
         id="path4452"
         style="stroke-width:0.137611" />
      <path
         d="m 126.05164,132.67732 0.44519,0.42667 q 0.044,0 0.0553,0.003 0.01,0.003 0.0202,0.0167 0.01,0.0136 0.01,0.0269 0,0.0202 -0.0136,0.0346 -0.0136,0.0136 -0.051,0.0136 h -0.31214 q -0.0358,0 -0.051,-0.0136 -0.0136,-0.0136 -0.0136,-0.0346 0,-0.0234 0.0136,-0.0346 0.0136,-0.0136 0.051,-0.0136 h 0.16078 l -0.3781,-0.36192 -0.37581,0.36192 h 0.16177 q 0.0346,0 0.0497,0.0136 0.0136,0.0136 0.0136,0.0346 0,0.0202 -0.0136,0.0346 -0.0136,0.0136 -0.0497,0.0136 h -0.31584 q -0.0346,0 -0.0497,-0.0136 -0.0136,-0.0136 -0.0136,-0.0346 0,-0.0136 0.006,-0.0269 0.01,-0.0136 0.0202,-0.0167 0.01,-0.003 0.0553,-0.003 l 0.44519,-0.42667 -0.39545,-0.37926 q -0.0415,0 -0.0534,-0.003 -0.01,-0.003 -0.0202,-0.0167 -0.006,-0.0136 -0.006,-0.0268 0,-0.0202 0.0136,-0.0346 0.0136,-0.0136 0.051,-0.0136 h 0.26482 q 0.0358,0 0.0496,0.0136 0.0136,0.0136 0.0136,0.0358 0,0.0202 -0.0136,0.0346 -0.0136,0.0136 -0.0496,0.0136 h -0.11544 l 0.32725,0.31584 0.32959,-0.31584 h -0.11584 q -0.0346,0 -0.051,-0.0136 -0.0136,-0.0136 -0.0136,-0.036 0,-0.0202 0.0136,-0.0346 0.0136,-0.0136 0.051,-0.0136 h 0.26483 q 0.0346,0 0.0497,0.0136 0.0136,0.0136 0.0136,0.0358 0,0.0136 -0.01,0.0268 -0.006,0.0136 -0.0202,0.0167 -0.01,0.003 -0.0521,0.003 z"
         id="path4454"
         style="stroke-width:0.137611" />
    </g>
    <g
       aria-label="Quick-Swap MXs"
       id="text3395-2"
       style="font-size:0.705556px;font-family:'Courier New';-inkscape-font-specification:'Courier New, Normal';fill-opacity:0;stroke:#000000;stroke-width:0.0409999;stroke-linecap:round;stroke-linejoin:round"
       transform="matrix(3.3563689,0,0,3.3563689,-306.30656,-298.46927)">
      <path
         d="m 119.90995,129.27767 -0.0386,0.0289 q 0.0286,-0.006 0.0472,-0.006 0.0303,0 0.0596,0.011 0.0207,0.008 0.032,0.008 0.02,0 0.0444,-0.0162 0.01,-0.006 0.0138,-0.006 0.006,0 0.01,0.004 0.004,0.004 0.004,0.0107 0,0.005 -0.003,0.009 -0.007,0.008 -0.0327,0.0193 -0.0193,0.009 -0.0379,0.009 -0.0145,0 -0.04,-0.009 -0.0255,-0.009 -0.0493,-0.009 -0.0169,0 -0.0417,0.004 -0.0348,0.006 -0.0558,0.0117 -0.007,0.002 -0.01,0.002 -0.006,0 -0.01,-0.004 -0.004,-0.004 -0.004,-0.011 0,-0.007 0.008,-0.0124 l 0.0644,-0.0465 q -0.0575,-0.0141 -0.0989,-0.071 -0.041,-0.0568 -0.041,-0.13677 0,-0.0934 0.053,-0.15262 0.0534,-0.0593 0.12334,-0.0593 0.0699,0 0.12299,0.0593 0.0534,0.0593 0.0534,0.15262 0,0.092 -0.0524,0.15159 -0.0524,0.0593 -0.12058,0.0603 z m 0.14366,-0.21188 q 0,-0.0706 -0.041,-0.12678 -0.041,-0.0562 -0.10611,-0.0562 -0.061,0 -0.10439,0.0537 -0.0431,0.0534 -0.0431,0.12919 0,0.0806 0.0451,0.13195 0.0455,0.051 0.10232,0.051 0.0651,0 0.10611,-0.0558 0.041,-0.0562 0.041,-0.12713 z"
         id="path4457" />
      <path
         d="m 120.42844,129.2663 v -0.0424 q -0.0593,0.0538 -0.12816,0.0538 -0.0424,0 -0.0644,-0.0231 -0.0286,-0.0303 -0.0286,-0.0706 v -0.18673 h -0.0389 q -0.0103,0 -0.0148,-0.004 -0.004,-0.004 -0.004,-0.0107 0,-0.006 0.004,-0.0103 0.004,-0.004 0.0148,-0.004 h 0.0679 v 0.21601 q 0,0.0282 0.0179,0.0465 0.0179,0.0183 0.0448,0.0183 0.0706,0 0.12954,-0.0648 v -0.18673 h -0.0534 q -0.0103,0 -0.0148,-0.004 -0.004,-0.004 -0.004,-0.0107 0,-0.006 0.004,-0.0103 0.004,-0.004 0.0148,-0.004 h 0.0823 v 0.26941 h 0.0245 q 0.0103,0 0.0148,0.004 0.004,0.004 0.004,0.0103 0,0.006 -0.004,0.0103 -0.004,0.004 -0.0148,0.004 z"
         id="path4459" />
      <path
         d="m 120.76709,128.81947 v 0.0748 h -0.0427 v -0.0748 z m 0.001,0.14848 v 0.26941 h 0.11369 q 0.0107,0 0.0151,0.004 0.004,0.004 0.004,0.0103 0,0.006 -0.004,0.0103 -0.004,0.004 -0.0151,0.004 h -0.25632 q -0.0103,0 -0.0148,-0.004 -0.004,-0.004 -0.004,-0.0103 0,-0.007 0.004,-0.0103 0.004,-0.004 0.0148,-0.004 h 0.11369 v -0.24013 h -0.0844 q -0.0103,0 -0.0152,-0.004 -0.004,-0.004 -0.004,-0.0103 0,-0.007 0.004,-0.0107 0.004,-0.004 0.0152,-0.004 z"
         id="path4461" />
      <path
         d="m 121.29695,128.99723 v -0.01 q 0,-0.0107 0.004,-0.0152 0.004,-0.004 0.0103,-0.004 0.007,0 0.0107,0.004 0.004,0.004 0.004,0.0152 v 0.0654 q -3.4e-4,0.0107 -0.004,0.0152 -0.004,0.004 -0.0103,0.004 -0.006,0 -0.01,-0.004 -0.004,-0.004 -0.004,-0.0134 -0.002,-0.0245 -0.0324,-0.0465 -0.03,-0.0221 -0.081,-0.0221 -0.0644,0 -0.0979,0.0403 -0.0334,0.0403 -0.0334,0.0923 0,0.0562 0.0369,0.0927 0.0369,0.0365 0.0954,0.0365 0.0338,0 0.0686,-0.0124 0.0351,-0.0124 0.0634,-0.04 0.007,-0.007 0.0127,-0.007 0.006,0 0.01,0.004 0.004,0.004 0.004,0.01 0,0.0148 -0.0348,0.0376 -0.0562,0.0369 -0.12506,0.0369 -0.0699,0 -0.11506,-0.0445 -0.0448,-0.0448 -0.0448,-0.11334 0,-0.0699 0.0458,-0.1161 0.0462,-0.0462 0.1161,-0.0462 0.0665,0 0.11162,0.0396 z"
         id="path4463" />
      <path
         d="m 121.54086,129.13745 v 0.12885 h -0.0679 q -0.0103,0 -0.0148,-0.004 -0.004,-0.004 -0.004,-0.0103 0,-0.007 0.004,-0.0103 0.004,-0.004 0.0148,-0.004 h 0.0389 v -0.37414 h -0.0389 q -0.0103,0 -0.0148,-0.004 -0.004,-0.004 -0.004,-0.0107 0,-0.006 0.004,-0.0103 0.004,-0.004 0.0148,-0.004 h 0.0679 v 0.26665 l 0.12299,-0.10336 h -0.0148 q -0.0103,0 -0.0148,-0.004 -0.004,-0.004 -0.004,-0.0103 0,-0.007 0.004,-0.0107 0.004,-0.004 0.0148,-0.004 h 0.0927 q 0.0107,0 0.0152,0.004 0.004,0.004 0.004,0.0107 0,0.006 -0.004,0.0103 -0.004,0.004 -0.0152,0.004 h -0.0334 l -0.113,0.0944 0.14298,0.14573 h 0.0334 q 0.0107,0 0.0152,0.004 0.004,0.004 0.004,0.0103 0,0.006 -0.004,0.0103 -0.004,0.004 -0.0152,0.004 h -0.0937 q -0.0103,0 -0.0148,-0.004 -0.004,-0.004 -0.004,-0.0103 0,-0.007 0.004,-0.0103 0.004,-0.004 0.0148,-0.004 h 0.0203 l -0.12436,-0.12782 z"
         id="path4465" />
      <path
         d="m 122.17063,129.04615 v 0.0413 h -0.29525 v -0.0413 z"
         id="path4467" />
      <path
         d="m 122.54993,128.89216 v -0.01 q 0,-0.0103 0.004,-0.0148 0.004,-0.004 0.0107,-0.004 0.007,0 0.0103,0.004 0.004,0.004 0.004,0.0148 v 0.0737 q 0,0.0103 -0.004,0.0148 -0.004,0.004 -0.0103,0.004 -0.006,0 -0.0103,-0.004 -0.004,-0.004 -0.004,-0.0134 -0.002,-0.0289 -0.03,-0.052 -0.0279,-0.0231 -0.0734,-0.0231 -0.0479,0 -0.0761,0.0248 -0.0282,0.0245 -0.0282,0.0579 0,0.0172 0.008,0.0314 0.008,0.0141 0.021,0.0231 0.0131,0.009 0.0296,0.0141 0.0165,0.005 0.0517,0.011 0.0589,0.01 0.0813,0.0196 0.03,0.0134 0.0451,0.0372 0.0155,0.0238 0.0155,0.0562 0,0.0496 -0.0396,0.0848 -0.0396,0.0348 -0.10679,0.0348 -0.0754,0 -0.12058,-0.0472 v 0.0165 q 0,0.0103 -0.004,0.0148 -0.004,0.004 -0.0103,0.004 -0.006,0 -0.0103,-0.004 -0.004,-0.004 -0.004,-0.0148 v -0.0799 q 0,-0.0107 0.004,-0.0152 0.004,-0.004 0.0107,-0.004 0.006,0 0.01,0.004 0.004,0.004 0.004,0.0134 0.002,0.0317 0.0338,0.0579 0.0324,0.0258 0.0868,0.0258 0.0544,0 0.0858,-0.0272 0.0317,-0.0272 0.0317,-0.0644 0,-0.0227 -0.0121,-0.0403 -0.0121,-0.0179 -0.0358,-0.0283 -0.0165,-0.007 -0.0689,-0.0162 -0.072,-0.0121 -0.1037,-0.0369 -0.0317,-0.0248 -0.0317,-0.0706 0,-0.0455 0.0362,-0.0782 0.0365,-0.0327 0.0961,-0.0327 0.0606,0 0.10439,0.0382 z"
         id="path4469" />
      <path
         d="m 122.96954,129.2663 -0.0358,3.4e-4 -0.0637,-0.18603 -0.0634,0.18603 -0.0358,-3.4e-4 -0.0599,-0.26907 h -0.0141 q -0.0103,0 -0.0148,-0.004 -0.004,-0.004 -0.004,-0.0107 0,-0.006 0.004,-0.0103 0.004,-0.004 0.0148,-0.004 h 0.0796 q 0.0103,0 0.0148,0.004 0.004,0.004 0.004,0.0107 0,0.006 -0.004,0.0103 -0.004,0.004 -0.0148,0.004 h -0.0369 l 0.0513,0.22945 0.0617,-0.18328 h 0.0344 l 0.0634,0.18328 0.0493,-0.22945 h -0.0365 q -0.0103,0 -0.0152,-0.004 -0.004,-0.004 -0.004,-0.0107 0,-0.006 0.004,-0.0103 0.004,-0.004 0.0152,-0.004 h 0.0792 q 0.0107,0 0.0151,0.004 0.004,0.004 0.004,0.0107 0,0.006 -0.004,0.0103 -0.004,0.004 -0.0151,0.004 h -0.0138 z"
         id="path4471" />
      <path
         d="m 123.37641,129.2663 v -0.0417 q -0.063,0.0531 -0.1347,0.0531 -0.052,0 -0.0813,-0.0262 -0.0293,-0.0265 -0.0293,-0.0648 0,-0.042 0.0386,-0.0734 0.0386,-0.0314 0.11266,-0.0314 0.02,0 0.0434,0.003 0.0234,0.002 0.0506,0.008 v -0.0469 q 0,-0.0238 -0.0221,-0.0413 -0.022,-0.0176 -0.0661,-0.0176 -0.0338,0 -0.0947,0.0196 -0.011,0.003 -0.0141,0.003 -0.006,0 -0.01,-0.004 -0.004,-0.004 -0.004,-0.0103 0,-0.006 0.003,-0.009 0.005,-0.005 0.0389,-0.0141 0.0537,-0.0145 0.0813,-0.0145 0.0548,0 0.0854,0.0272 0.0307,0.0269 0.0307,0.061 v 0.19155 h 0.0386 q 0.0107,0 0.0152,0.004 0.004,0.004 0.004,0.0103 0,0.006 -0.004,0.0103 -0.004,0.004 -0.0152,0.004 z m 0,-0.14401 q -0.0203,-0.006 -0.0431,-0.009 -0.0227,-0.003 -0.0479,-0.003 -0.0631,0 -0.0985,0.0272 -0.0269,0.0203 -0.0269,0.0486 0,0.0262 0.0203,0.0441 0.0207,0.0179 0.06,0.0179 0.0375,0 0.0696,-0.0148 0.0324,-0.0152 0.0665,-0.0479 z"
         id="path4473" />
      <path
         d="m 123.60758,128.96795 v 0.0527 q 0.0258,-0.0314 0.0555,-0.0472 0.0296,-0.0158 0.0699,-0.0158 0.0427,0 0.0789,0.02 0.0362,0.02 0.0558,0.0558 0.02,0.0355 0.02,0.0748 0,0.0624 -0.0448,0.10679 -0.0444,0.0441 -0.10956,0.0441 -0.0775,0 -0.12574,-0.063 v 0.17432 h 0.0703 q 0.0103,0 0.0148,0.004 0.004,0.004 0.004,0.0107 0,0.006 -0.004,0.0103 -0.004,0.004 -0.0148,0.004 h -0.13815 q -0.0103,0 -0.0148,-0.004 -0.004,-0.004 -0.004,-0.0103 0,-0.007 0.004,-0.0107 0.004,-0.004 0.0148,-0.004 h 0.0389 v -0.37311 h -0.0389 q -0.0103,0 -0.0148,-0.004 -0.004,-0.004 -0.004,-0.0107 0,-0.006 0.004,-0.0103 0.004,-0.004 0.0148,-0.004 z m 0.2508,0.14022 q 0,-0.05 -0.0365,-0.0854 -0.0362,-0.0358 -0.0885,-0.0358 -0.0527,0 -0.0892,0.0358 -0.0365,0.0358 -0.0365,0.0854 0,0.0499 0.0365,0.0858 0.0365,0.0358 0.0892,0.0358 0.052,0 0.0885,-0.0355 0.0365,-0.0358 0.0365,-0.0861 z"
         id="path4475" />
      <path
         d="m 124.58254,129.14537 h -0.0331 l -0.11128,-0.25321 h -0.006 v 0.3452 h 0.0534 q 0.0103,0 0.0148,0.004 0.004,0.004 0.004,0.0103 0,0.006 -0.004,0.0103 -0.004,0.004 -0.0148,0.004 h -0.1068 q -0.0103,0 -0.0148,-0.004 -0.004,-0.004 -0.004,-0.0103 0,-0.007 0.004,-0.0103 0.004,-0.004 0.0148,-0.004 h 0.0245 v -0.3452 h -0.0183 q -0.0103,0 -0.0148,-0.004 -0.004,-0.004 -0.004,-0.0107 0,-0.007 0.004,-0.0103 0.004,-0.004 0.0148,-0.004 h 0.071 l 0.10955,0.24943 0.10783,-0.24943 h 0.071 q 0.0107,0 0.0152,0.004 0.004,0.004 0.004,0.0103 0,0.007 -0.004,0.0107 -0.004,0.004 -0.0152,0.004 h -0.0179 v 0.3452 h 0.0241 q 0.0107,0 0.0152,0.004 0.004,0.004 0.004,0.0103 0,0.006 -0.004,0.0103 -0.004,0.004 -0.0152,0.004 h -0.10645 q -0.0103,0 -0.0152,-0.004 -0.004,-0.004 -0.004,-0.0103 0,-0.007 0.004,-0.0103 0.004,-0.004 0.0152,-0.004 h 0.0534 v -0.3452 h -0.006 z"
         id="path4477" />
      <path
         d="m 125.00422,129.05994 0.13746,0.17742 h 0.011 q 0.0103,0 0.0148,0.004 0.004,0.004 0.004,0.0103 0,0.006 -0.004,0.0103 -0.004,0.004 -0.0148,0.004 h -0.093 q -0.0103,0 -0.0148,-0.004 -0.004,-0.004 -0.004,-0.0103 0,-0.007 0.004,-0.0103 0.004,-0.004 0.0148,-0.004 h 0.0462 l -0.11955,-0.15365 -0.11816,0.15365 h 0.0462 q 0.0103,0 0.0148,0.004 0.004,0.004 0.004,0.0103 0,0.006 -0.004,0.0103 -0.004,0.004 -0.0148,0.004 h -0.0923 q -0.0103,0 -0.0148,-0.004 -0.004,-0.004 -0.004,-0.0103 0,-0.005 0.003,-0.009 0.003,-0.004 0.006,-0.005 0.003,-0.001 0.021,-0.001 l 0.13574,-0.17742 -0.12954,-0.16778 h -0.0107 q -0.0103,0 -0.0148,-0.004 -0.004,-0.004 -0.004,-0.0107 0,-0.007 0.004,-0.0103 0.004,-0.004 0.0148,-0.004 h 0.0789 q 0.0107,0 0.0152,0.004 0.004,0.004 0.004,0.0103 0,0.007 -0.004,0.0107 -0.004,0.004 -0.0152,0.004 h -0.0324 l 0.11162,0.14435 0.11094,-0.14435 h -0.0324 q -0.0107,0 -0.0152,-0.004 -0.004,-0.004 -0.004,-0.0107 0,-0.007 0.004,-0.0103 0.004,-0.004 0.0152,-0.004 h 0.0792 q 0.0103,0 0.0148,0.004 0.004,0.004 0.004,0.0103 0,0.007 -0.004,0.0107 -0.004,0.004 -0.0148,0.004 h -0.011 z"
         id="path4479" />
      <path
         d="m 125.50583,128.9869 q 0,-0.01 0.004,-0.0145 0.004,-0.004 0.0103,-0.004 0.007,0 0.0107,0.004 0.004,0.004 0.004,0.0152 v 0.0496 q 0,0.0103 -0.004,0.0148 -0.004,0.004 -0.0107,0.004 -0.006,0 -0.01,-0.004 -0.004,-0.004 -0.004,-0.0124 -0.002,-0.0207 -0.0214,-0.0341 -0.0282,-0.0193 -0.0748,-0.0193 -0.0486,0 -0.0755,0.0196 -0.0203,0.0148 -0.0203,0.0331 0,0.0207 0.0241,0.0344 0.0165,0.01 0.0627,0.0148 0.0603,0.007 0.0837,0.0148 0.0334,0.0121 0.0496,0.0334 0.0165,0.0213 0.0165,0.0462 0,0.0369 -0.0355,0.0658 -0.0355,0.0286 -0.10404,0.0286 -0.0686,0 -0.11232,-0.0348 0,0.0117 -10e-4,0.0152 -0.001,0.003 -0.005,0.006 -0.003,0.002 -0.008,0.002 -0.006,0 -0.0103,-0.004 -0.004,-0.004 -0.004,-0.0148 v -0.0596 q 0,-0.0103 0.004,-0.0148 0.004,-0.004 0.0107,-0.004 0.006,0 0.0103,0.004 0.004,0.004 0.004,0.0114 0,0.0159 0.008,0.0265 0.0121,0.0165 0.0382,0.0276 0.0265,0.0107 0.0648,0.0107 0.0565,0 0.0841,-0.021 0.0276,-0.021 0.0276,-0.0444 0,-0.0269 -0.0279,-0.0431 -0.0282,-0.0162 -0.0823,-0.0217 -0.0537,-0.006 -0.0772,-0.0145 -0.0234,-0.009 -0.0365,-0.0269 -0.0131,-0.0179 -0.0131,-0.0386 0,-0.0372 0.0365,-0.0589 0.0365,-0.022 0.0872,-0.022 0.0599,0 0.0975,0.0293 z"
         id="path4481" />
    </g>
    <path
       id="rect3526"
       style="fill-opacity:0;stroke:#000000;stroke-width:0.506786;stroke-linecap:round;stroke-linejoin:round"
       d="m 94.890836,125.6185 h 34.846704 v 12.95555 H 94.890836 Z" />
    <rect
       style="fill:#000000;stroke:#000000;stroke-width:0.00486133;stroke-linecap:round;stroke-linejoin:round"
       id="rect1768-7-8-3-6-1"
       width="1.1357089"
       height="0.28512505"
       x="-181.412"
       y="-9.1618681"
       transform="rotate(-135)" />
    <rect
       style="fill:#000000;stroke:#000000;stroke-width:0.00486133;stroke-linecap:round;stroke-linejoin:round"
       id="rect1768-7-8-3-6-1-0"
       width="1.1357089"
       height="0.28512505"
       x="-185.82852"
       y="-8.9804134"
       transform="rotate(-135)" />
    <rect
       style="fill:#000000;stroke:#000000;stroke-width:0.00486133;stroke-linecap:round;stroke-linejoin:round"
       id="rect1768-7-8-3-6-1-9"
       width="1.1357089"
       height="0.28512505"
       x="-11.704725"
       y="182.81911"
       transform="rotate(-45)" />
    <rect
       style="fill:#000000;stroke:#000000;stroke-width:0.00486133;stroke-linecap:round;stroke-linejoin:round"
       id="rect1768-7-8-3-6-1-9-8"
       width="1.1357089"
       height="0.28512505"
       x="-7.2881594"
       y="183.00058"
       transform="rotate(-45)" />
    <rect
       style="fill:#000000;stroke:#000000;stroke-width:0.00486133;stroke-linecap:round;stroke-linejoin:round"
       id="rect1768-7-8-3-6-1-8"
       width="1.1357089"
       height="0.28512505"
       x="-121.44614"
       y="-135.8936"
       transform="scale(-1)" />
    <rect
       style="fill:#000000;stroke:#000000;stroke-width:0.00486133;stroke-linecap:round;stroke-linejoin:round"
       id="rect1768-7-8-3-6-1-0-8"
       width="1.1357089"
       height="0.28512505"
       x="-125.93786"
       y="-135.8936"
       transform="scale(-1)" />
    <g
       aria-label="Version 1.0.0"
       id="text4898"
       style="font-size:0.726448px;font-family:'Courier New';-inkscape-font-specification:'Courier New, Normal';fill-opacity:0;stroke:#000000;stroke-width:0.140027;stroke-linecap:round;stroke-linejoin:round">
      <path
         d="m 96.140364,137.93785 h -0.103753 l -0.375106,-0.96304 h -0.05764 q -0.0204,0 -0.02926,-0.004 -0.0089,-0.004 -0.01508,-0.0133 -0.0053,-0.01 -0.0053,-0.0204 0,-0.0106 0.0053,-0.0195 0.0062,-0.01 0.01508,-0.0133 0.0089,-0.004 0.02926,-0.004 h 0.277561 q 0.02128,0 0.02926,0.004 0.0089,0.004 0.01419,0.0133 0.0062,0.009 0.0062,0.0195 0,0.0106 -0.0062,0.0204 -0.0062,0.009 -0.01508,0.0133 -0.008,0.004 -0.02838,0.004 h -0.142771 l 0.345843,0.88855 h 0.0053 l 0.341409,-0.88855 h -0.141884 q -0.02128,0 -0.03015,-0.004 -0.0089,-0.004 -0.01508,-0.0133 -0.0053,-0.01 -0.0053,-0.0204 0,-0.0106 0.0062,-0.0195 0.0062,-0.01 0.01419,-0.0133 0.0089,-0.004 0.03015,-0.004 h 0.276675 q 0.02128,0 0.03015,0.004 0.0089,0.004 0.01419,0.0133 0.0062,0.009 0.0062,0.0195 0,0.0106 -0.0062,0.0204 -0.0062,0.009 -0.01507,0.0133 -0.008,0.004 -0.02926,0.004 h -0.05675 z"
         style="font-size:1.81612px"
         id="path4900" />
      <path
         d="m 97.577831,137.57161 h -0.759082 q 0.01951,0.14455 0.120602,0.23322 0.101979,0.0878 0.251845,0.0878 0.08336,0 0.174695,-0.0275 0.09134,-0.0275 0.148978,-0.0727 0.01685,-0.0133 0.02926,-0.0133 0.01419,0 0.02483,0.0115 0.01064,0.0106 0.01064,0.0257 0,0.0151 -0.01419,0.0293 -0.04257,0.0443 -0.151639,0.0833 -0.108187,0.0381 -0.222581,0.0381 -0.191544,0 -0.320127,-0.12503 -0.127696,-0.12592 -0.127696,-0.30417 0,-0.16228 0.119715,-0.27844 0.120602,-0.11617 0.297957,-0.11617 0.182676,0 0.300618,0.11971 0.117941,0.11883 0.116168,0.3086 z m -0.07538,-0.0754 q -0.02217,-0.12327 -0.117054,-0.20042 -0.094,-0.0771 -0.224355,-0.0771 -0.130356,0 -0.224355,0.0763 -0.094,0.0763 -0.117054,0.2013 z"
         style="font-size:1.81612px"
         id="path4902" />
      <path
         d="m 98.175518,137.1699 v 0.188 q 0.145432,-0.13124 0.217261,-0.16849 0.07272,-0.0381 0.133903,-0.0381 0.06651,0 0.123262,0.0452 0.05764,0.0443 0.05764,0.0674 0,0.0169 -0.01153,0.0284 -0.01064,0.0106 -0.02749,0.0106 -0.0089,0 -0.01508,-0.003 -0.0062,-0.004 -0.02306,-0.0204 -0.03104,-0.031 -0.05409,-0.0426 -0.02306,-0.0115 -0.04523,-0.0115 -0.04877,0 -0.117941,0.039 -0.06828,0.039 -0.237657,0.19065 v 0.40792 H 98.5054 q 0.02749,0 0.03902,0.0106 0.01153,0.01 0.01153,0.0266 0,0.016 -0.01153,0.0266 -0.01153,0.0106 -0.03902,0.0106 h -0.584387 q -0.0266,0 -0.03813,-0.01 -0.01153,-0.0106 -0.01153,-0.0266 0,-0.0151 0.01064,-0.0248 0.01153,-0.0106 0.03902,-0.0106 h 0.180016 v -0.62074 h -0.13745 q -0.0266,0 -0.03813,-0.0106 -0.01153,-0.0106 -0.01153,-0.0275 0,-0.016 0.01064,-0.0266 0.01153,-0.0106 0.03902,-0.0106 z"
         style="font-size:1.81612px"
         id="path4904" />
      <path
         d="m 99.60057,137.21867 q 0,-0.0257 0.01064,-0.0372 0.01064,-0.0115 0.0266,-0.0115 0.01685,0 0.02749,0.0115 0.01064,0.0115 0.01064,0.039 v 0.12769 q 0,0.0266 -0.01064,0.0381 -0.01064,0.0115 -0.02749,0.0115 -0.01508,0 -0.02572,-0.01 -0.0098,-0.01 -0.01153,-0.0319 -0.0053,-0.0532 -0.05498,-0.0878 -0.07272,-0.0497 -0.19243,-0.0497 -0.125036,0 -0.194205,0.0505 -0.05232,0.0381 -0.05232,0.0851 0,0.0532 0.06207,0.0887 0.04256,0.0248 0.161393,0.0381 0.155186,0.0169 0.215487,0.0381 0.08602,0.031 0.127696,0.086 0.04257,0.055 0.04257,0.11883 0,0.0949 -0.09134,0.16937 -0.09134,0.0736 -0.267807,0.0736 -0.176469,0 -0.28909,-0.0896 0,0.0301 -0.0035,0.039 -0.0035,0.009 -0.0133,0.0151 -0.0089,0.006 -0.0204,0.006 -0.01596,0 -0.0266,-0.0115 -0.01064,-0.0115 -0.01064,-0.0381 v -0.15341 q 0,-0.0266 0.0098,-0.0381 0.01064,-0.0115 0.02749,-0.0115 0.01596,0 0.0266,0.0115 0.01153,0.0106 0.01153,0.0293 0,0.0408 0.0204,0.0683 0.03104,0.0426 0.09843,0.071 0.06828,0.0275 0.166714,0.0275 0.145432,0 0.216374,-0.0541 0.07094,-0.0541 0.07094,-0.11439 0,-0.0692 -0.07183,-0.11085 -0.07272,-0.0417 -0.211939,-0.0559 -0.138338,-0.0142 -0.198639,-0.0372 -0.0603,-0.0231 -0.094,-0.0692 -0.0337,-0.0461 -0.0337,-0.0993 0,-0.0958 0.094,-0.15164 0.094,-0.0567 0.224355,-0.0567 0.154299,0 0.250958,0.0754 z"
         style="font-size:1.81612px"
         id="path4906" />
      <path
         d="m 100.48114,136.7877 v 0.19243 h -0.10996 v -0.19243 z m 0.003,0.3822 v 0.69346 h 0.29264 q 0.0275,0 0.039,0.0106 0.0115,0.01 0.0115,0.0266 0,0.016 -0.0115,0.0266 -0.0115,0.0106 -0.039,0.0106 h -0.65977 q -0.0266,0 -0.0381,-0.0106 -0.0115,-0.0106 -0.0115,-0.0266 0,-0.0169 0.0115,-0.0266 0.0115,-0.0106 0.0381,-0.0106 h 0.29264 v -0.61808 h -0.21726 q -0.0266,0 -0.039,-0.0106 -0.0115,-0.0106 -0.0115,-0.0266 0,-0.0169 0.0115,-0.0275 0.0115,-0.0106 0.039,-0.0106 z"
         style="font-size:1.81612px"
         id="path4908" />
      <path
         d="m 101.95053,137.55565 q 0,0.17026 -0.12238,0.29086 -0.12148,0.1206 -0.29352,0.1206 -0.17381,0 -0.2953,-0.1206 -0.12148,-0.12149 -0.12148,-0.29086 0,-0.17026 0.12148,-0.29086 0.12149,-0.12149 0.2953,-0.12149 0.17204,0 0.29352,0.1206 0.12238,0.1206 0.12238,0.29175 z m -0.0754,0 q 0,-0.14011 -0.1002,-0.23854 -0.0993,-0.0984 -0.24121,-0.0984 -0.14188,0 -0.24209,0.0993 -0.0993,0.0984 -0.0993,0.23766 0,0.13834 0.0993,0.23766 0.10021,0.0993 0.24209,0.0993 0.14189,0 0.24121,-0.0984 0.1002,-0.0993 0.1002,-0.23854 z"
         style="font-size:1.81612px"
         id="path4910" />
      <path
         d="m 102.38328,137.1699 v 0.11262 q 0.078,-0.0789 0.14099,-0.10907 0.063,-0.0301 0.14189,-0.0301 0.0851,0 0.15518,0.0364 0.0497,0.0266 0.0896,0.0887 0.0408,0.0612 0.0408,0.12593 v 0.4691 h 0.063 q 0.0266,0 0.0381,0.0106 0.0115,0.01 0.0115,0.0266 0,0.016 -0.0115,0.0266 -0.0115,0.0106 -0.0381,0.0106 h -0.19952 q -0.0275,0 -0.039,-0.0106 -0.0115,-0.0106 -0.0115,-0.0266 0,-0.0169 0.0115,-0.0266 0.0115,-0.0106 0.039,-0.0106 h 0.0621 v -0.45669 q 0,-0.0789 -0.0576,-0.13302 -0.0576,-0.055 -0.1543,-0.055 -0.0736,0 -0.12769,0.0301 -0.0541,0.0293 -0.1543,0.14721 v 0.46733 h 0.0842 q 0.0266,0 0.0381,0.0106 0.0115,0.01 0.0115,0.0266 0,0.016 -0.0115,0.0266 -0.0115,0.0106 -0.0381,0.0106 h -0.24298 q -0.0266,0 -0.0381,-0.0106 -0.0115,-0.0106 -0.0115,-0.0266 0,-0.0169 0.0115,-0.0266 0.0115,-0.0106 0.0381,-0.0106 h 0.0842 v -0.61808 h -0.063 q -0.0266,0 -0.0381,-0.0106 -0.0115,-0.0106 -0.0115,-0.0275 0,-0.016 0.0115,-0.0266 0.0115,-0.0106 0.0381,-0.0106 z"
         style="font-size:1.81612px"
         id="path4912" />
      <path
         d="m 104.84054,136.80987 v 1.05349 h 0.25539 q 0.0266,0 0.0381,0.0106 0.0115,0.01 0.0115,0.0266 0,0.016 -0.0115,0.0266 -0.0115,0.0106 -0.0381,0.0106 h -0.58527 q -0.0266,0 -0.0381,-0.0106 -0.0115,-0.0106 -0.0115,-0.0266 0,-0.0169 0.0115,-0.0266 0.0115,-0.0106 0.0381,-0.0106 h 0.25539 v -0.95062 l -0.24298,0.0763 q -0.0177,0.005 -0.0257,0.005 -0.0133,0 -0.0248,-0.0106 -0.0106,-0.0115 -0.0106,-0.0266 0,-0.0133 0.009,-0.0248 0.007,-0.007 0.0293,-0.0151 z"
         style="font-size:1.81612px"
         id="path4914" />
      <path
         d="m 105.87807,137.72414 h 0.0319 q 0.0497,0 0.0851,0.0355 0.0355,0.0346 0.0355,0.0842 0,0.0514 -0.0364,0.086 -0.0355,0.0346 -0.0842,0.0346 h -0.0319 q -0.0497,0 -0.0851,-0.0346 -0.0355,-0.0355 -0.0355,-0.0851 0,-0.0514 0.0355,-0.086 0.0363,-0.0346 0.0851,-0.0346 z"
         style="font-size:1.81612px"
         id="path4916" />
      <path
         d="m 107.32529,137.28962 v 0.18445 q 0,0.24031 -0.1144,0.38042 -0.0896,0.10996 -0.22613,0.10996 -0.0656,0 -0.12414,-0.0266 -0.0576,-0.0257 -0.0984,-0.0727 -0.0257,-0.0293 -0.0567,-0.094 -0.0302,-0.0647 -0.0435,-0.11883 -0.0204,-0.0763 -0.0204,-0.17824 v -0.18445 q 0,-0.24121 0.1144,-0.38132 0.0896,-0.10996 0.22612,-0.10996 0.0665,0 0.12415,0.0266 0.0576,0.0257 0.0984,0.0727 0.0266,0.0301 0.0567,0.0949 0.0302,0.0647 0.0443,0.11794 0.0195,0.0763 0.0195,0.17913 z m -0.0745,0.01 q 0,-0.10553 -0.0301,-0.19598 -0.0293,-0.0913 -0.0665,-0.14543 -0.0222,-0.031 -0.0576,-0.0532 -0.0506,-0.031 -0.11351,-0.031 -0.12503,0 -0.19598,0.12769 -0.0709,0.1277 -0.0709,0.29796 v 0.16406 q 0,0.10552 0.0293,0.19686 0.0302,0.0913 0.0683,0.14543 0.0213,0.0301 0.0567,0.0523 0.0506,0.0319 0.11439,0.0319 0.12415,0 0.1951,-0.12769 0.0709,-0.12858 0.0709,-0.29884 z"
         style="font-size:1.81612px"
         id="path4918" />
      <path
         d="m 108.05777,137.72414 h 0.0319 q 0.0497,0 0.0851,0.0355 0.0355,0.0346 0.0355,0.0842 0,0.0514 -0.0364,0.086 -0.0355,0.0346 -0.0842,0.0346 h -0.0319 q -0.0497,0 -0.0851,-0.0346 -0.0355,-0.0355 -0.0355,-0.0851 0,-0.0514 0.0355,-0.086 0.0364,-0.0346 0.0851,-0.0346 z"
         style="font-size:1.81612px"
         id="path4920" />
      <path
         d="m 109.50499,137.28962 v 0.18445 q 0,0.24031 -0.1144,0.38042 -0.0896,0.10996 -0.22613,0.10996 -0.0656,0 -0.12415,-0.0266 -0.0576,-0.0257 -0.0984,-0.0727 -0.0257,-0.0293 -0.0567,-0.094 -0.0302,-0.0647 -0.0435,-0.11883 -0.0204,-0.0763 -0.0204,-0.17824 v -0.18445 q 0,-0.24121 0.11439,-0.38132 0.0896,-0.10996 0.22613,-0.10996 0.0665,0 0.12415,0.0266 0.0576,0.0257 0.0984,0.0727 0.0266,0.0301 0.0568,0.0949 0.0301,0.0647 0.0443,0.11794 0.0195,0.0763 0.0195,0.17913 z m -0.0745,0.01 q 0,-0.10553 -0.0301,-0.19598 -0.0293,-0.0913 -0.0665,-0.14543 -0.0222,-0.031 -0.0576,-0.0532 -0.0506,-0.031 -0.11351,-0.031 -0.12504,0 -0.19598,0.12769 -0.0709,0.1277 -0.0709,0.29796 v 0.16406 q 0,0.10552 0.0293,0.19686 0.0301,0.0913 0.0683,0.14543 0.0213,0.0301 0.0568,0.0523 0.0505,0.0319 0.11439,0.0319 0.12415,0 0.19509,-0.12769 0.0709,-0.12858 0.0709,-0.29884 z"
         style="font-size:1.81612px"
         id="path4922" />
    </g>
  </g>
</svg>
