<?xml version="1.0" encoding="UTF-8" standalone="no"?>
<!-- Created with Inkscape (http://www.inkscape.org/) -->

<svg
   width="210mm"
   height="297mm"
   viewBox="0 0 210 297"
   version="1.1"
   id="svg6720"
   sodipodi:docname="MX104-HS_Edition.svg"
   inkscape:version="1.2.2 (732a01da63, 2022-12-09)"
   xmlns:inkscape="http://www.inkscape.org/namespaces/inkscape"
   xmlns:sodipodi="http://sodipodi.sourceforge.net/DTD/sodipodi-0.dtd"
   xmlns="http://www.w3.org/2000/svg"
   xmlns:svg="http://www.w3.org/2000/svg">
  <sodipodi:namedview
     id="namedview6722"
     pagecolor="#ffffff"
     bordercolor="#000000"
     borderopacity="0.25"
     inkscape:showpageshadow="2"
     inkscape:pageopacity="0.0"
     inkscape:pagecheckerboard="0"
     inkscape:deskcolor="#d1d1d1"
     inkscape:document-units="mm"
     showgrid="false"
     inkscape:zoom="7.9999996"
     inkscape:cx="222.50001"
     inkscape:cy="211.81251"
     inkscape:window-width="1916"
     inkscape:window-height="2041"
     inkscape:window-x="4818"
     inkscape:window-y="6"
     inkscape:window-maximized="0"
     inkscape:current-layer="layer1" />
  <defs
     id="defs6717">
    <rect
       x="151.25"
       y="253.625"
       width="86.125"
       height="30.806751"
       id="rect7860" />
    <rect
       x="157.56962"
       y="243.74504"
       width="74.10755"
       height="18.35575"
       id="rect7784" />
  </defs>
  <g
     inkscape:label="Layer 1"
     inkscape:groupmode="layer"
     id="layer1">
    <text
       xml:space="preserve"
       transform="scale(0.26458333)"
       id="text7782"
       style="font-style:normal;font-variant:normal;font-weight:normal;font-stretch:normal;font-size:17.3333px;font-family:'Mongolian Baiti';-inkscape-font-specification:'Mongolian Baiti, Normal';font-variant-ligatures:normal;font-variant-caps:normal;font-variant-numeric:normal;font-variant-east-asian:normal;white-space:pre;shape-inside:url(#rect7784);display:inline;fill:none;stroke:#000000;stroke-width:0.570709;stroke-linecap:round;stroke-linejoin:round" />
    <text
       xml:space="preserve"
       transform="scale(0.26458333)"
       id="text7858"
       style="font-style:normal;font-variant:normal;font-weight:normal;font-stretch:normal;font-size:17.3333px;font-family:'Mongolian Baiti';-inkscape-font-specification:'Mongolian Baiti, Normal';font-variant-ligatures:normal;font-variant-caps:normal;font-variant-numeric:normal;font-variant-east-asian:normal;white-space:pre;shape-inside:url(#rect7860);display:inline;fill:none;stroke:#000000;stroke-width:0.570709;stroke-linecap:round;stroke-linejoin:round" />
    <g
       aria-label="First Edition 
 #  out of 5"
       id="text2288"
       style="font-size:1.80615px;font-family:'Courier New';-inkscape-font-specification:'Courier New, Normal';fill:none;stroke:#000000;stroke-width:0.127994;stroke-linecap:round;stroke-linejoin:round"
       transform="matrix(1.5220087,0,0,1.5220087,-21.186148,-34.888315)">
      <path
         d="m 40.872937,67.544293 v 0.424199 h 0.25399 q 0.02646,0 0.03792,0.01058 0.01146,0.0097 0.01146,0.02646 0,0.01587 -0.01146,0.02646 -0.01146,0.01058 -0.03792,0.01058 h -0.427726 q -0.02646,0 -0.03792,-0.01058 -0.01147,-0.01058 -0.01147,-0.02646 0,-0.01676 0.01147,-0.02646 0.01146,-0.01058 0.03792,-0.01058 h 0.09965 v -0.883673 h -0.09965 q -0.02646,0 -0.03792,-0.0097 -0.01147,-0.01058 -0.01147,-0.02734 0,-0.01676 0.01323,-0.02822 0.0097,-0.0088 0.03616,-0.0088 h 0.815766 v 0.254872 q 0,0.02646 -0.01058,0.03792 -0.01058,0.01147 -0.02646,0.01147 -0.01676,0 -0.02734,-0.01147 -0.01058,-0.01147 -0.01058,-0.03792 V 67.08484 H 40.87294 v 0.385394 h 0.265454 v -0.08378 q 0,-0.02646 0.01058,-0.03792 0.01058,-0.01147 0.02734,-0.01147 0.01588,0 0.02646,0.01147 0.01058,0.01146 0.01058,0.03792 v 0.241643 q 0,0.02646 -0.01058,0.03792 -0.01058,0.01147 -0.02646,0.01147 -0.01676,0 -0.02734,-0.01147 -0.01058,-0.01147 -0.01058,-0.03792 v -0.08378 z"
         style="stroke-width:0.127995"
         id="path2348" />
      <path
         d="m 42.171989,66.898736 v 0.191374 h -0.109357 v -0.191374 z m 0.0026,0.380103 v 0.689653 h 0.29103 q 0.02734,0 0.0388,0.01058 0.01146,0.0097 0.01146,0.02646 0,0.01587 -0.01146,0.02646 -0.01147,0.01058 -0.0388,0.01058 h -0.656141 q -0.02646,0 -0.03792,-0.01058 -0.01147,-0.01058 -0.01147,-0.02646 0,-0.01676 0.01147,-0.02646 0.01147,-0.01058 0.03792,-0.01058 h 0.29103 v -0.614691 h -0.216067 q -0.02646,0 -0.0388,-0.01058 -0.01147,-0.01058 -0.01147,-0.02646 0,-0.01676 0.01147,-0.02734 0.01146,-0.01058 0.0388,-0.01058 z"
         style="stroke-width:0.127995"
         id="path2350" />
      <path
         d="m 43.130624,67.278839 v 0.186964 q 0.144633,-0.130522 0.216068,-0.167562 0.07232,-0.03792 0.133168,-0.03792 0.06614,0 0.122586,0.04498 0.05732,0.04409 0.05732,0.06703 0,0.01676 -0.01147,0.02822 -0.01058,0.01058 -0.02734,0.01058 -0.0088,0 -0.01499,-0.0026 -0.0062,-0.0035 -0.02293,-0.02028 -0.03087,-0.03087 -0.0538,-0.04233 -0.02293,-0.01147 -0.04498,-0.01147 -0.0485,0 -0.117294,0.0388 -0.06791,0.0388 -0.236352,0.18961 v 0.405679 h 0.32807 q 0.02734,0 0.0388,0.01058 0.01147,0.0097 0.01147,0.02646 0,0.01587 -0.01147,0.02646 -0.01146,0.01058 -0.0388,0.01058 h -0.581178 q -0.02646,0 -0.03792,-0.0097 -0.01147,-0.01058 -0.01147,-0.02646 0,-0.01499 0.01058,-0.02469 0.01147,-0.01058 0.0388,-0.01058 h 0.179028 v -0.617336 h -0.136696 q -0.02646,0 -0.03792,-0.01058 -0.01147,-0.01058 -0.01147,-0.02734 0,-0.01587 0.01058,-0.02646 0.01146,-0.01058 0.0388,-0.01058 z"
         style="stroke-width:0.127995"
         id="path2352" />
      <path
         d="m 44.547852,67.327344 q 0,-0.02558 0.01058,-0.03704 0.01058,-0.01147 0.02646,-0.01147 0.01676,0 0.02734,0.01147 0.01058,0.01146 0.01058,0.0388 v 0.126994 q 0,0.02646 -0.01058,0.03792 -0.01058,0.01146 -0.02734,0.01146 -0.01499,0 -0.02558,-0.0097 -0.0097,-0.0097 -0.01147,-0.03175 -0.0053,-0.05291 -0.05468,-0.08731 -0.07232,-0.04939 -0.191374,-0.04939 -0.12435,0 -0.193139,0.05027 -0.05203,0.03792 -0.05203,0.08466 0,0.05291 0.06173,0.08819 0.04233,0.02469 0.160508,0.03792 0.154334,0.01676 0.214304,0.03792 0.08554,0.03087 0.126995,0.08554 0.04233,0.05468 0.04233,0.118176 0,0.09436 -0.09084,0.168445 -0.09084,0.0732 -0.266337,0.0732 -0.1755,0 -0.287502,-0.08907 0,0.02998 -0.0035,0.0388 -0.0035,0.0088 -0.01323,0.01499 -0.0088,0.0062 -0.02028,0.0062 -0.01587,0 -0.02646,-0.01147 -0.01058,-0.01147 -0.01058,-0.03792 v -0.15257 q 0,-0.02646 0.0097,-0.03792 0.01058,-0.01147 0.02734,-0.01147 0.01587,0 0.02646,0.01147 0.01147,0.01058 0.01147,0.0291 0,0.04057 0.02028,0.06791 0.03087,0.04233 0.09789,0.07055 0.06791,0.02734 0.165798,0.02734 0.144634,0 0.215186,-0.0538 0.07055,-0.0538 0.07055,-0.113766 0,-0.06879 -0.07144,-0.110239 -0.07232,-0.04145 -0.210776,-0.05556 -0.137578,-0.01411 -0.197548,-0.03704 -0.05997,-0.02293 -0.09348,-0.06879 -0.03351,-0.04586 -0.03351,-0.09877 0,-0.09525 0.09348,-0.150806 0.09348,-0.05644 0.223123,-0.05644 0.153452,0 0.24958,0.07496 z"
         style="stroke-width:0.127995"
         id="path2354" />
      <path
         d="m 45.234859,67.278839 h 0.402151 q 0.02646,0 0.03792,0.01058 0.01147,0.01058 0.01147,0.02734 0,0.01587 -0.01147,0.02646 -0.01147,0.01058 -0.03792,0.01058 h -0.402151 v 0.492987 q 0,0.06438 0.05115,0.107593 0.05203,0.04321 0.151689,0.04321 0.07496,0 0.162271,-0.02205 0.08731,-0.02293 0.135814,-0.05115 0.01764,-0.01147 0.0291,-0.01147 0.01411,0 0.02469,0.01147 0.01058,0.01058 0.01058,0.02558 0,0.01323 -0.01147,0.02469 -0.02822,0.0291 -0.137577,0.0635 -0.108475,0.03351 -0.208131,0.03351 -0.129641,0 -0.206367,-0.06085 -0.07673,-0.06085 -0.07673,-0.164035 v -0.492987 h -0.136696 q -0.02646,0 -0.03792,-0.01058 -0.01147,-0.01058 -0.01147,-0.02734 0,-0.01587 0.01147,-0.02646 0.01147,-0.01058 0.03792,-0.01058 h 0.136696 v -0.218714 q 0,-0.02646 0.01058,-0.03792 0.01058,-0.01147 0.02646,-0.01147 0.01676,0 0.02734,0.01147 0.01058,0.01147 0.01058,0.03792 z"
         style="stroke-width:0.127995"
         id="path2356" />
      <path
         d="m 47.313519,67.544293 v 0.424199 h 0.569714 v -0.218714 q 0,-0.02646 0.0097,-0.03792 0.01058,-0.01147 0.02734,-0.01147 0.01676,0 0.02646,0.01147 0.01058,0.01147 0.01058,0.03792 v 0.292794 h -0.81753 q -0.02646,0 -0.03792,-0.01058 -0.01147,-0.01058 -0.01147,-0.02646 0,-0.01676 0.01147,-0.02646 0.01147,-0.01058 0.03792,-0.01058 h 0.09966 v -0.883673 h -0.09966 q -0.02646,0 -0.03792,-0.0097 -0.01147,-0.01058 -0.01147,-0.02734 0,-0.01676 0.01147,-0.02646 0.01147,-0.01058 0.03792,-0.01058 h 0.778726 v 0.254872 q 0,0.02646 -0.01058,0.03792 -0.0097,0.01147 -0.02646,0.01147 -0.01676,0 -0.02734,-0.01147 -0.0097,-0.01147 -0.0097,-0.03792 V 67.08482 h -0.53091 v 0.385394 h 0.265455 v -0.08378 q 0,-0.02646 0.01058,-0.03792 0.01058,-0.01147 0.02734,-0.01147 0.01587,0 0.02646,0.01147 0.01058,0.01146 0.01058,0.03792 v 0.241643 q 0,0.02646 -0.01058,0.03792 -0.01058,0.01147 -0.02646,0.01147 -0.01676,0 -0.02734,-0.01147 -0.01058,-0.01147 -0.01058,-0.03792 v -0.08378 z"
         style="stroke-width:0.127995"
         id="path2358" />
      <path
         d="m 49.001494,66.935776 v 1.032716 h 0.09877 q 0.02734,0 0.0388,0.01058 0.01146,0.0097 0.01146,0.02646 0,0.01587 -0.01146,0.02646 -0.01147,0.01058 -0.0388,0.01058 h -0.173737 v -0.147279 q -0.128758,0.176382 -0.327188,0.176382 -0.100538,0 -0.193138,-0.05291 -0.09172,-0.0538 -0.145515,-0.15257 -0.05291,-0.09877 -0.05291,-0.203721 0,-0.105829 0.05291,-0.203721 0.0538,-0.09877 0.145515,-0.15257 0.0926,-0.0538 0.19402,-0.0538 0.19402,0 0.326306,0.176382 V 67.01074 h -0.09877 q -0.02734,0 -0.0388,-0.01058 -0.01146,-0.01058 -0.01146,-0.02734 0,-0.01587 0.01146,-0.02646 0.01146,-0.01058 0.0388,-0.01058 z m -0.07496,0.726693 q 0,-0.141105 -0.09525,-0.238115 -0.09525,-0.09701 -0.22665,-0.09701 -0.132287,0 -0.227533,0.09701 -0.09525,0.09701 -0.09525,0.238115 0,0.140224 0.09525,0.238116 0.09525,0.09701 0.227533,0.09701 0.131404,0 0.22665,-0.09701 0.09525,-0.09789 0.09525,-0.238116 z"
         style="stroke-width:0.127995"
         id="path2360" />
      <path
         d="m 49.759053,66.898736 v 0.191374 h -0.109356 v -0.191374 z m 0.0026,0.380103 v 0.689653 h 0.29103 q 0.02734,0 0.0388,0.01058 0.01147,0.0097 0.01147,0.02646 0,0.01587 -0.01147,0.02646 -0.01147,0.01058 -0.0388,0.01058 h -0.65614 q -0.02646,0 -0.03792,-0.01058 -0.01146,-0.01058 -0.01146,-0.02646 0,-0.01676 0.01146,-0.02646 0.01146,-0.01058 0.03792,-0.01058 h 0.29103 v -0.614691 h -0.216068 q -0.02646,0 -0.0388,-0.01058 -0.01147,-0.01058 -0.01147,-0.02646 0,-0.01676 0.01147,-0.02734 0.01147,-0.01058 0.0388,-0.01058 z"
         style="stroke-width:0.127995"
         id="path2362" />
      <path
         d="m 50.654191,67.278839 h 0.402151 q 0.02646,0 0.03792,0.01058 0.01146,0.01058 0.01146,0.02734 0,0.01587 -0.01146,0.02646 -0.01147,0.01058 -0.03792,0.01058 h -0.402151 v 0.492987 q 0,0.06438 0.05115,0.107593 0.05203,0.04321 0.151688,0.04321 0.07496,0 0.162271,-0.02205 0.08731,-0.02293 0.135814,-0.05115 0.01764,-0.01147 0.0291,-0.01147 0.01411,0 0.02469,0.01147 0.01058,0.01058 0.01058,0.02558 0,0.01323 -0.01147,0.02469 -0.02822,0.0291 -0.137578,0.0635 -0.108475,0.03351 -0.20813,0.03351 -0.129641,0 -0.206367,-0.06085 -0.07673,-0.06085 -0.07673,-0.164035 v -0.492987 h -0.136696 q -0.02646,0 -0.03792,-0.01058 -0.01147,-0.01058 -0.01147,-0.02734 0,-0.01587 0.01147,-0.02646 0.01146,-0.01058 0.03792,-0.01058 h 0.136696 v -0.218714 q 0,-0.02646 0.01058,-0.03792 0.01058,-0.01147 0.02646,-0.01147 0.01676,0 0.02734,0.01147 0.01058,0.01147 0.01058,0.03792 z"
         style="stroke-width:0.127995"
         id="path2364" />
      <path
         d="m 51.926786,66.898736 v 0.191374 h -0.109357 v -0.191374 z m 0.0026,0.380103 v 0.689653 h 0.29103 q 0.02734,0 0.0388,0.01058 0.01147,0.0097 0.01147,0.02646 0,0.01587 -0.01147,0.02646 -0.01146,0.01058 -0.0388,0.01058 h -0.65614 q -0.02646,0 -0.03792,-0.01058 -0.01147,-0.01058 -0.01147,-0.02646 0,-0.01676 0.01147,-0.02646 0.01147,-0.01058 0.03792,-0.01058 h 0.29103 v -0.614691 h -0.216068 q -0.02646,0 -0.0388,-0.01058 -0.01147,-0.01058 -0.01147,-0.02646 0,-0.01676 0.01147,-0.02734 0.01147,-0.01058 0.0388,-0.01058 z"
         style="stroke-width:0.127995"
         id="path2366" />
      <path
         d="m 53.38811,67.662469 q 0,0.169327 -0.121704,0.289266 -0.120821,0.11994 -0.291912,0.11994 -0.172854,0 -0.293675,-0.11994 -0.120822,-0.120821 -0.120822,-0.289266 0,-0.169326 0.120822,-0.289266 0.120821,-0.120822 0.293675,-0.120822 0.171091,0 0.291912,0.11994 0.121704,0.11994 0.121704,0.290148 z m -0.07496,0 q 0,-0.139341 -0.09966,-0.237233 -0.09877,-0.09789 -0.239879,-0.09789 -0.141106,0 -0.240762,0.09877 -0.09877,0.09789 -0.09877,0.236351 0,0.137578 0.09877,0.236352 0.09966,0.09877 0.240762,0.09877 0.141105,0 0.239879,-0.09789 0.09966,-0.09877 0.09966,-0.237234 z"
         style="stroke-width:0.127995"
         id="path2368" />
      <path
         d="m 53.818481,67.278839 v 0.112002 q 0.07761,-0.07849 0.140224,-0.108475 0.06262,-0.02998 0.141105,-0.02998 0.08466,0 0.154334,0.03616 0.04939,0.02646 0.08907,0.08819 0.04057,0.06085 0.04057,0.125231 v 0.46653 h 0.06262 q 0.02646,0 0.03792,0.01058 0.01146,0.0097 0.01146,0.02646 0,0.01587 -0.01146,0.02646 -0.01147,0.01058 -0.03792,0.01058 h -0.19843 q -0.02734,0 -0.0388,-0.01058 -0.01147,-0.01058 -0.01147,-0.02646 0,-0.01676 0.01147,-0.02646 0.01147,-0.01058 0.0388,-0.01058 h 0.06173 v -0.454184 q 0,-0.07849 -0.05732,-0.132286 -0.05732,-0.05468 -0.153453,-0.05468 -0.0732,0 -0.126995,0.02998 -0.0538,0.0291 -0.153452,0.146397 v 0.464766 h 0.08378 q 0.02646,0 0.03792,0.01058 0.01147,0.0097 0.01147,0.02646 0,0.01587 -0.01147,0.02646 -0.01147,0.01058 -0.03792,0.01058 H 53.66062 q -0.02646,0 -0.03792,-0.01058 -0.01146,-0.01058 -0.01146,-0.02646 0,-0.01676 0.01146,-0.02646 0.01147,-0.01058 0.03792,-0.01058 h 0.08378 v -0.614691 h -0.06262 q -0.02646,0 -0.03792,-0.01058 -0.01147,-0.01058 -0.01147,-0.02734 0,-0.01587 0.01147,-0.02646 0.01146,-0.01058 0.03792,-0.01058 z"
         style="stroke-width:0.127995"
         id="path2370" />
      <path
         d="m 42.298984,69.647647 -0.01587,0.232824 h 0.141988 q 0.02646,0 0.03792,0.01058 0.01146,0.0097 0.01146,0.02646 0,0.01676 -0.01146,0.02734 -0.01147,0.0097 -0.03792,0.0097 h -0.147279 l -0.0291,0.412734 q -0.0018,0.02646 -0.01235,0.03704 -0.0097,0.01058 -0.02469,0.01058 l -0.01499,-0.0035 q -0.02205,-0.01323 -0.02205,-0.03616 v -0.01323 l 0.0291,-0.407442 H 42.03618 l -0.02822,0.412734 q -0.0018,0.02646 -0.01235,0.03704 -0.01058,0.01058 -0.02469,0.01058 l -0.01588,-0.0035 q -0.02205,-0.01323 -0.02205,-0.03616 l 8.81e-4,-0.01323 0.02822,-0.407442 H 41.80776 q -0.02646,0 -0.03792,-0.0097 -0.01146,-0.01058 -0.01146,-0.02734 0,-0.01676 0.01146,-0.02646 0.01147,-0.01058 0.03792,-0.01058 h 0.159626 l 0.01587,-0.232824 h -0.137577 q -0.02734,0 -0.0388,-0.0097 -0.01147,-0.01058 -0.01147,-0.02734 0,-0.01676 0.01147,-0.02646 0.01146,-0.01058 0.0388,-0.01058 h 0.142869 l 0.0291,-0.412733 q 0.0018,-0.02558 0.01235,-0.03616 0.01058,-0.01147 0.02469,-0.01147 l 0.01587,0.0035 q 0.02205,0.01411 0.02205,0.03528 l -8.82e-4,0.01411 -0.02822,0.407442 h 0.166681 l 0.0291,-0.412733 q 0.0018,-0.02558 0.01147,-0.03616 0.01058,-0.01147 0.02557,-0.01147 l 0.01499,0.0035 q 0.02293,0.01411 0.02293,0.03528 l -8.82e-4,0.01411 -0.0291,0.407442 h 0.157862 q 0.02646,0 0.03792,0.01058 0.01147,0.0097 0.01147,0.02646 0,0.01676 -0.01147,0.02734 -0.01147,0.0097 -0.03792,0.0097 z m -0.07408,0 h -0.16668 l -0.01676,0.232824 h 0.167563 z"
         style="stroke-width:0.127995"
         id="path2372" />
      <path
         d="m 45.801045,69.920157 q 0,0.169326 -0.121703,0.289266 -0.120822,0.119939 -0.291912,0.119939 -0.172854,0 -0.293676,-0.119939 -0.120822,-0.120822 -0.120822,-0.289266 0,-0.169327 0.120822,-0.289267 0.120822,-0.120821 0.293676,-0.120821 0.17109,0 0.291912,0.11994 0.121703,0.119939 0.121703,0.290148 z m -0.07496,0 q 0,-0.139342 -0.09966,-0.237234 -0.09877,-0.09789 -0.239879,-0.09789 -0.141106,0 -0.240761,0.09877 -0.09877,0.09789 -0.09877,0.236352 0,0.137577 0.09877,0.236351 0.09965,0.09877 0.240761,0.09877 0.141105,0 0.239879,-0.09789 0.09966,-0.09877 0.09966,-0.237233 z"
         style="stroke-width:0.127995"
         id="path2374" />
      <path
         d="m 46.724404,70.300259 v -0.108474 q -0.151689,0.137577 -0.32807,0.137577 -0.108475,0 -0.164917,-0.05909 -0.0732,-0.07761 -0.0732,-0.180792 v -0.477995 h -0.09966 q -0.02646,0 -0.03792,-0.01058 -0.01147,-0.01058 -0.01147,-0.02734 0,-0.01587 0.01147,-0.02646 0.01147,-0.01058 0.03792,-0.01058 h 0.173736 v 0.552957 q 0,0.07232 0.04586,0.119058 0.04586,0.04674 0.114648,0.04674 0.180791,0 0.331598,-0.165799 v -0.477995 h -0.136696 q -0.02646,0 -0.03792,-0.01058 -0.01146,-0.01058 -0.01146,-0.02734 0,-0.01587 0.01146,-0.02646 0.01147,-0.01058 0.03792,-0.01058 h 0.210776 v 0.689653 h 0.06262 q 0.02646,0 0.03792,0.01058 0.01147,0.0097 0.01147,0.02646 0,0.01587 -0.01147,0.02646 -0.01147,0.01058 -0.03792,0.01058 z"
         style="stroke-width:0.127995"
         id="path2376" />
      <path
         d="m 47.402592,69.536526 h 0.402151 q 0.02646,0 0.03792,0.01058 0.01147,0.01058 0.01147,0.02734 0,0.01587 -0.01147,0.02646 -0.01146,0.01058 -0.03792,0.01058 h -0.402151 v 0.492988 q 0,0.06438 0.05115,0.107593 0.05203,0.04321 0.151688,0.04321 0.07496,0 0.162272,-0.02205 0.08731,-0.02293 0.135814,-0.05115 0.01764,-0.01147 0.0291,-0.01147 0.01411,0 0.02469,0.01147 0.01058,0.01058 0.01058,0.02558 0,0.01323 -0.01147,0.02469 -0.02822,0.0291 -0.137578,0.0635 -0.108475,0.03351 -0.20813,0.03351 -0.129641,0 -0.206367,-0.06085 -0.07673,-0.06085 -0.07673,-0.164035 v -0.492988 h -0.136696 q -0.02646,0 -0.03792,-0.01058 -0.01146,-0.01058 -0.01146,-0.02734 0,-0.01587 0.01146,-0.02646 0.01147,-0.01058 0.03792,-0.01058 h 0.136696 v -0.218713 q 0,-0.02646 0.01058,-0.03792 0.01058,-0.01147 0.02646,-0.01147 0.01676,0 0.02734,0.01147 0.01058,0.01146 0.01058,0.03792 z"
         style="stroke-width:0.127995"
         id="path2378" />
      <path
         d="m 50.136511,69.920157 q 0,0.169326 -0.121704,0.289266 -0.120821,0.119939 -0.291912,0.119939 -0.172854,0 -0.293676,-0.119939 -0.120821,-0.120822 -0.120821,-0.289266 0,-0.169327 0.120821,-0.289267 0.120822,-0.120821 0.293676,-0.120821 0.171091,0 0.291912,0.11994 0.121704,0.119939 0.121704,0.290148 z m -0.07496,0 q 0,-0.139342 -0.09965,-0.237234 -0.09877,-0.09789 -0.23988,-0.09789 -0.141105,0 -0.240761,0.09877 -0.09877,0.09789 -0.09877,0.236352 0,0.137577 0.09877,0.236351 0.09966,0.09877 0.240761,0.09877 0.141106,0 0.23988,-0.09789 0.09965,-0.09877 0.09965,-0.237233 z"
         style="stroke-width:0.127995"
         id="path2380" />
      <path
         d="m 50.757374,69.611488 v 0.614691 h 0.325425 q 0.02646,0 0.03792,0.01058 0.01146,0.0097 0.01146,0.02646 0,0.01587 -0.01146,0.02646 -0.01147,0.01058 -0.03792,0.01058 h -0.579414 q -0.02646,0 -0.03792,-0.01058 -0.01146,-0.01058 -0.01146,-0.02646 0,-0.01676 0.01146,-0.02646 0.01147,-0.01058 0.03792,-0.01058 h 0.179027 v -0.614691 h -0.160507 q -0.02646,0 -0.03792,-0.01058 -0.01147,-0.01058 -0.01147,-0.02734 0,-0.01587 0.01147,-0.02646 0.01146,-0.01058 0.03792,-0.01058 h 0.160507 v -0.112002 q 0,-0.09348 0.07584,-0.162272 0.07584,-0.06879 0.201076,-0.06879 0.104947,0 0.224004,0.0194 0.04498,0.0071 0.0538,0.01676 0.0097,0.0097 0.0097,0.02557 0,0.01587 -0.01058,0.02646 -0.01058,0.0097 -0.02822,0.0097 -0.0071,0 -0.02381,-0.0026 -0.133168,-0.02028 -0.224886,-0.02028 -0.09701,0 -0.149925,0.04762 -0.05203,0.04762 -0.05203,0.108475 v 0.112002 h 0.346591 q 0.02646,0 0.03792,0.01058 0.01147,0.01058 0.01147,0.02734 0,0.01587 -0.01147,0.02646 -0.01146,0.01058 -0.03792,0.01058 z"
         style="stroke-width:0.127995"
         id="path2382" />
      <path
         d="m 52.769892,69.268426 v 0.362464 q 0.06526,-0.02734 0.125231,-0.04057 0.05997,-0.01411 0.113766,-0.01411 0.139342,0 0.232824,0.09789 0.09436,0.09789 0.09436,0.257517 0,0.176382 -0.105829,0.285739 -0.105829,0.109357 -0.264573,0.109357 -0.104947,0 -0.201957,-0.04674 -0.06879,-0.03263 -0.125231,-0.08114 -0.03351,-0.0291 -0.03351,-0.04851 0,-0.01587 0.01058,-0.02646 0.01058,-0.01147 0.02469,-0.01147 0.01499,0 0.03175,0.01587 0.133168,0.124349 0.290148,0.124349 0.12964,0 0.214304,-0.08819 0.08466,-0.08907 0.08466,-0.236351 0,-0.125231 -0.0732,-0.201075 -0.0732,-0.07673 -0.186082,-0.07673 -0.11553,0 -0.231061,0.06085 -0.02822,0.01411 -0.03968,0.01411 -0.01588,0 -0.02558,-0.01058 -0.0097,-0.01058 -0.0097,-0.02998 v -0.491224 h 0.516799 q 0.02646,0 0.03792,0.01058 0.01147,0.01058 0.01147,0.02734 0,0.01587 -0.01147,0.02646 -0.01147,0.01058 -0.03792,0.01058 z"
         style="stroke-width:0.127995"
         id="path2384" />
    </g>
  </g>
</svg>
